<svg width="203" height="85" viewBox="0 0 203 85" fill="none" xmlns="http://www.w3.org/2000/svg">
<g clip-path="url(#clip0_1_23)">
<path d="M111.864 39.157V23.8738H118.542C121.835 23.8738 124.298 26.1686 124.298 29.2768C124.298 32.3851 121.848 34.6269 118.542 34.6269H116.389V39.157H111.864ZM116.415 30.4209H118.463C118.777 30.4209 119.079 30.2955 119.301 30.0723C119.524 29.849 119.649 29.5462 119.649 29.2305C119.649 28.9148 119.524 28.612 119.301 28.3888C119.079 28.1656 118.777 28.0402 118.463 28.0402H116.415V30.4209Z" fill="#4E5051"/>
<path d="M125.747 32.2263V23.8738H130.291V32.2263C130.267 32.5884 130.317 32.9517 130.438 33.2936C130.559 33.6354 130.75 33.9485 130.997 34.2134C131.244 34.4782 131.543 34.6892 131.874 34.8332C132.206 34.9772 132.564 35.051 132.925 35.0502C133.288 35.057 133.649 34.9872 133.983 34.8453C134.318 34.7034 134.619 34.4926 134.868 34.2264C135.116 33.9602 135.306 33.6446 135.425 33.3001C135.544 32.9556 135.59 32.5898 135.559 32.2263V23.8738H140.071V32.2263C140.071 34.1311 139.317 35.9579 137.976 37.3048C136.635 38.6516 134.815 39.4083 132.919 39.4083C131.022 39.4083 129.203 38.6516 127.861 37.3048C126.52 35.9579 125.767 34.1311 125.767 32.2263H125.747Z" fill="#4E5051"/>
<path d="M141.849 31.5055C141.849 27.0878 145.254 23.7085 149.976 23.7085C154.078 23.7085 157.042 26.4662 157.483 30.1894H152.979C152.793 29.5381 152.398 28.9671 151.854 28.5661C151.311 28.165 150.65 27.9568 149.976 27.974C149.514 27.9562 149.053 28.0362 148.624 28.2088C148.195 28.3814 147.807 28.6428 147.486 28.9759C147.164 29.309 146.916 29.7064 146.757 30.1422C146.598 30.578 146.532 31.0425 146.564 31.5055C146.537 31.9681 146.605 32.4314 146.765 32.866C146.925 33.3007 147.174 33.6972 147.494 34.0304C147.815 34.3636 148.201 34.6264 148.628 34.8019C149.055 34.9775 149.514 35.062 149.976 35.0502C150.648 35.075 151.309 34.8701 151.851 34.4689C152.393 34.0678 152.784 33.494 152.959 32.8414H157.51C157.042 36.6241 154.039 39.3223 149.976 39.3223C145.319 39.3223 141.849 35.9694 141.849 31.5055Z" fill="#4E5051"/>
<path d="M159.373 39.157V23.8738H166.084C169.377 23.8738 171.84 26.1686 171.84 29.2768C171.84 32.3851 169.384 34.6269 166.084 34.6269H163.917V39.157H159.373ZM163.917 30.4209H165.959C166.273 30.4209 166.575 30.2955 166.797 30.0723C167.019 29.849 167.144 29.5462 167.144 29.2305C167.144 28.9148 167.019 28.612 166.797 28.3888C166.575 28.1656 166.273 28.0402 165.959 28.0402H163.917V30.4209Z" fill="#4E5051"/>
<path d="M173.421 39.157V23.8738H180.006C183.299 23.8738 185.782 26.2546 185.782 29.1644C185.778 30.0391 185.541 30.8967 185.095 31.648C184.649 32.3994 184.011 33.017 183.246 33.4366L186.039 39.1306H181.106L178.972 34.2434H177.958V39.1306L173.421 39.157ZM177.971 30.4209H179.894C180.05 30.4329 180.207 30.4121 180.355 30.3598C180.502 30.3075 180.637 30.2249 180.751 30.1172C180.865 30.0096 180.956 29.8792 181.017 29.7346C181.078 29.5899 181.108 29.434 181.106 29.2768C181.115 29.1136 181.089 28.9504 181.03 28.7979C180.972 28.6454 180.881 28.5071 180.766 28.3922C180.65 28.2772 180.511 28.1882 180.359 28.1309C180.206 28.0737 180.044 28.0495 179.881 28.06H177.958L177.971 30.4209Z" fill="#4E5051"/>
<path d="M110.699 64.6511L116.178 49.3745H121.703L127.103 64.6511H122.322L121.585 62.2108H115.993L115.21 64.6511H110.699ZM117.172 58.4478H120.465L118.878 53.1573L117.172 58.4478Z" fill="#4E5051"/>
<path d="M127.104 57.0061C127.104 52.5819 130.515 49.2025 135.23 49.2025C139.34 49.2025 142.303 51.9668 142.744 55.6835H138.24C138.052 55.0329 137.655 54.4631 137.11 54.0634C136.566 53.6638 135.905 53.4567 135.23 53.4747C134.296 53.4747 133.4 53.8474 132.739 54.5109C132.078 55.1745 131.707 56.0744 131.707 57.0128C131.707 57.9511 132.078 58.851 132.739 59.5146C133.4 60.1781 134.296 60.5508 135.23 60.5508C135.903 60.5769 136.565 60.3724 137.107 59.9711C137.649 59.5697 138.039 58.9953 138.214 58.342H142.764C142.303 62.1248 139.294 64.823 135.23 64.823C130.587 64.8098 127.104 61.5031 127.104 57.0061Z" fill="#4E5051"/>
<path d="M144.068 57.0061C144.026 55.4125 144.459 53.8426 145.31 52.4969C146.161 51.1513 147.392 50.0911 148.847 49.4519C150.301 48.8126 151.912 48.6234 153.474 48.9084C155.036 49.1933 156.478 49.9395 157.615 51.0516C158.753 52.1636 159.534 53.591 159.86 55.1513C160.185 56.7117 160.04 58.334 159.442 59.8109C158.845 61.2879 157.822 62.5524 156.506 63.4429C155.189 64.3333 153.638 64.8092 152.05 64.8098C151.011 64.8417 149.976 64.6633 149.007 64.2851C148.038 63.907 147.155 63.3368 146.41 62.6086C145.665 61.8804 145.074 61.0091 144.672 60.0466C144.269 59.084 144.064 58.05 144.068 57.0061ZM155.303 57.0061C155.257 56.3627 155.024 55.7468 154.634 55.2345C154.243 54.7222 153.712 54.3358 153.106 54.1229C152.499 53.9101 151.844 53.88 151.221 54.0364C150.597 54.1929 150.033 54.529 149.598 55.0034C149.162 55.4778 148.875 56.0698 148.77 56.7064C148.666 57.3429 148.749 57.9963 149.009 58.586C149.27 59.1756 149.697 59.6758 150.237 60.025C150.777 60.3741 151.408 60.5569 152.05 60.5508C152.498 60.5419 152.94 60.442 153.349 60.2571C153.758 60.0723 154.126 59.8063 154.429 59.4752C154.733 59.144 154.967 58.7546 155.118 58.3303C155.268 57.906 155.331 57.4556 155.303 57.0061Z" fill="#4E5051"/>
<path d="M162.008 64.6511V49.3745H166.558V60.4054H172.927V64.6511H162.008Z" fill="#4E5051"/>
<path d="M174.771 64.6511V49.3745H179.321V54.7312H185.334V49.3745H189.885V64.6511H185.334V58.9835H179.321V64.6511H174.771Z" fill="#4E5051"/>
<path d="M192.42 64.6511V49.3745H202.793V53.3424H196.971V55.042H202.47V58.7388H196.971V60.6302H202.937V64.5982L192.42 64.6511Z" fill="#4E5051"/>
<path d="M47.16 14.5491C47.5946 14.8467 50.927 17.0225 53.581 14.4367C53.5999 14.4182 53.615 14.3961 53.6252 14.3717C53.6355 14.3473 53.6408 14.321 53.6408 14.2945C53.6408 14.268 53.6355 14.2418 53.6252 14.2174C53.615 14.1929 53.5999 14.1708 53.581 14.1523C52.0773 12.7459 50.4457 11.4838 48.7076 10.3828C48.6959 10.3746 48.6862 10.3637 48.6793 10.3511C48.6725 10.3385 48.6686 10.3244 48.6681 10.31V6.82487C48.6678 6.80592 48.6743 6.78751 48.6864 6.77295C48.6985 6.7584 48.7154 6.74866 48.734 6.74551H51.4341C51.4865 6.74551 51.5367 6.7246 51.5738 6.6874C51.6108 6.65019 51.6317 6.59973 51.6317 6.54711V3.83568C51.6326 3.80938 51.6281 3.78317 51.6185 3.75868C51.6089 3.73419 51.5944 3.71195 51.5758 3.69334C51.5573 3.67473 51.5352 3.66015 51.5108 3.6505C51.4864 3.64086 51.4603 3.63636 51.4341 3.63728H48.734C48.723 3.63732 48.7122 3.63507 48.7021 3.63068C48.6921 3.62628 48.6831 3.61984 48.6756 3.61175C48.6682 3.60367 48.6625 3.59412 48.659 3.58371C48.6554 3.57331 48.654 3.56227 48.6549 3.55131V0.198397C48.6549 0.145779 48.6341 0.0953159 48.5971 0.0581092C48.56 0.0209025 48.5098 0 48.4574 0L45.7638 0C45.7114 0 45.6612 0.0209025 45.6241 0.0581092C45.5871 0.0953159 45.5663 0.145779 45.5663 0.198397V3.55131C45.5672 3.56227 45.5658 3.57331 45.5622 3.58371C45.5587 3.59412 45.553 3.60367 45.5456 3.61175C45.5381 3.61984 45.5291 3.62628 45.5191 3.63068C45.509 3.63507 45.4982 3.63732 45.4872 3.63728H42.8069C42.7804 3.6364 42.754 3.64087 42.7292 3.65044C42.7045 3.66002 42.6819 3.67449 42.6629 3.693C42.6438 3.71151 42.6287 3.73369 42.6183 3.7582C42.608 3.78271 42.6027 3.80906 42.6027 3.83568V6.54711C42.6044 6.60033 42.6267 6.65079 42.6648 6.68782C42.7029 6.72484 42.7538 6.74553 42.8069 6.74551H45.4938C45.5148 6.74551 45.5349 6.75387 45.5497 6.76875C45.5645 6.78363 45.5728 6.80382 45.5728 6.82487V10.3233C45.5723 10.3376 45.5685 10.3517 45.5616 10.3643C45.5548 10.377 45.5451 10.3878 45.5333 10.396C43.7941 11.4924 42.1643 12.7548 40.6665 14.1656C40.6467 14.1835 40.6309 14.2055 40.6201 14.23C40.6093 14.2545 40.6037 14.281 40.6037 14.3077C40.6037 14.3345 40.6093 14.361 40.6201 14.3855C40.6309 14.41 40.6467 14.432 40.6665 14.4499C43.3008 17.0357 46.6529 14.86 47.0875 14.5624C47.1 14.5532 47.115 14.5483 47.1304 14.5483C47.1458 14.5483 47.1607 14.5532 47.1732 14.5624" fill="#890438"/>
<path d="M47.1534 22.1411C47.6934 22.4387 53.6271 25.5866 58.0395 21.9626C58.0734 21.9344 58.097 21.8958 58.1066 21.8526C58.1161 21.8095 58.1111 21.7644 58.0922 21.7245C57.5268 20.4675 56.8663 19.256 56.1165 18.1004C56.0983 18.0715 56.073 18.0478 56.043 18.0315C56.013 18.0153 55.9793 18.0071 55.9453 18.0079H38.3088C38.2748 18.0071 38.2411 18.0153 38.2111 18.0315C38.1811 18.0478 38.1558 18.0715 38.1376 18.1004C37.3878 19.256 36.7273 20.4675 36.1619 21.7245C36.143 21.7644 36.138 21.8095 36.1475 21.8526C36.1571 21.8958 36.1807 21.9344 36.2146 21.9626C40.627 25.5866 46.5607 22.4387 47.0941 22.1411C47.1063 22.1348 47.1199 22.1314 47.1336 22.1314C47.1474 22.1314 47.161 22.1348 47.1732 22.1411" fill="#890438"/>
<path d="M55.425 53.7657L48.1808 57.9981C48.1522 58.0155 48.1196 58.025 48.0862 58.0258C48.0528 58.0265 48.0198 58.0185 47.9905 58.0024C47.9611 57.9863 47.9365 57.9628 47.9191 57.9342C47.9016 57.9056 47.8919 57.8729 47.891 57.8394V49.9564C47.8908 49.9224 47.8998 49.889 47.9173 49.8598C47.9347 49.8307 47.9598 49.8069 47.9898 49.7911L55.234 45.552C55.2629 45.536 55.2954 45.5278 55.3284 45.5282C55.3614 45.5286 55.3937 45.5375 55.4222 45.5542C55.4507 45.5708 55.4745 45.5946 55.4911 45.6232C55.5078 45.6518 55.5168 45.6842 55.5172 45.7173V53.6003C55.5174 53.6335 55.509 53.6662 55.4929 53.6952C55.4767 53.7242 55.4533 53.7485 55.425 53.7657Z" fill="#890438"/>
<path d="M38.8094 53.7657L46.0207 57.9981C46.0493 58.0155 46.0819 58.025 46.1153 58.0258C46.1487 58.0265 46.1817 58.0185 46.211 58.0024C46.2403 57.9863 46.265 57.9628 46.2824 57.9342C46.2999 57.9056 46.3095 57.8729 46.3105 57.8394V49.9564C46.3107 49.9224 46.3016 49.889 46.2842 49.8598C46.2668 49.8307 46.2417 49.8069 46.2117 49.7911L38.9675 45.552C38.9386 45.536 38.906 45.5278 38.8731 45.5282C38.8401 45.5286 38.8078 45.5375 38.7792 45.5542C38.7507 45.5708 38.727 45.5946 38.7103 45.6232C38.6937 45.6518 38.6847 45.6842 38.6843 45.7173V53.6003C38.6841 53.6335 38.6925 53.6662 38.7086 53.6952C38.7248 53.7242 38.7482 53.7485 38.7765 53.7657" fill="#890438"/>
<path d="M61.1216 67.5476L48.2137 75.1264C48.1847 75.1441 48.1515 75.1536 48.1175 75.1541C48.0836 75.1545 48.0501 75.1459 48.0206 75.129C47.9911 75.1122 47.9666 75.0878 47.9496 75.0582C47.9326 75.0287 47.9237 74.9952 47.924 74.9611V59.9027C47.9237 59.8687 47.9328 59.8353 47.9502 59.8061C47.9677 59.777 47.9927 59.7532 48.0227 59.7374L60.9307 52.1586C60.9597 52.141 60.9929 52.1315 61.0269 52.131C61.0608 52.1305 61.0943 52.1392 61.1238 52.156C61.1533 52.1729 61.1778 52.1973 61.1948 52.2268C61.2118 52.2563 61.2206 52.2899 61.2204 52.324V67.3823C61.22 67.4162 61.2106 67.4493 61.1932 67.4784C61.1759 67.5074 61.1512 67.5313 61.1216 67.5476Z" fill="#890438"/>
<path d="M33.1062 67.5476L46.0207 75.1264C46.0497 75.1441 46.083 75.1536 46.1169 75.1541C46.1508 75.1545 46.1843 75.1459 46.2138 75.129C46.2433 75.1122 46.2679 75.0878 46.2848 75.0582C46.3018 75.0287 46.3107 74.9952 46.3105 74.9611V59.9027C46.3107 59.8687 46.3016 59.8353 46.2842 59.8061C46.2668 59.777 46.2417 59.7532 46.2117 59.7374L33.3037 52.1586C33.2747 52.141 33.2415 52.1315 33.2075 52.131C33.1736 52.1305 33.1401 52.1392 33.1106 52.156C33.0811 52.1729 33.0566 52.1973 33.0396 52.2268C33.0226 52.2563 33.0138 52.2899 33.014 52.324V67.3823C33.015 67.4153 33.0239 67.4475 33.0399 67.4763C33.056 67.5051 33.0787 67.5296 33.1062 67.5476Z" fill="#890438"/>
<path d="M87.6817 69.7498C86.8563 69.8145 86.0311 69.6233 85.3175 69.202C84.6039 68.7806 84.0363 68.1495 83.6913 67.3939C83.3463 66.6382 83.2405 65.7944 83.3884 64.9765C83.5362 64.1586 83.9305 63.4059 84.5179 62.8202C85.1053 62.2345 85.8577 61.8439 86.6732 61.7013C87.4888 61.5587 88.3282 61.6709 89.0783 62.0227C89.8283 62.3745 90.4527 62.949 90.8672 63.6686C91.2817 64.3881 91.4663 65.2181 91.396 66.0464C91.3146 67.0057 90.8964 67.9047 90.216 68.5831C89.5357 69.2614 88.6375 69.6749 87.6817 69.7498ZM79.7262 55.4388C79.6617 54.61 79.8522 53.7814 80.2718 53.0648C80.6913 52.3482 81.3198 51.7781 82.0723 51.4317C82.8248 51.0853 83.6651 50.9791 84.4796 51.1275C85.2941 51.276 86.0436 51.6719 86.6269 52.2618C87.2102 52.8517 87.5991 53.6072 87.7411 54.4261C87.8832 55.2451 87.7715 56.0881 87.4211 56.8413C87.0708 57.5944 86.4987 58.2215 85.7821 58.6377C85.0655 59.0539 84.239 59.2393 83.4141 59.1687C82.4589 59.0869 81.5636 58.667 80.8881 57.9838C80.2126 57.3006 79.8008 56.3986 79.7262 55.4388ZM76.6309 71.1386C75.8048 71.203 74.9789 71.011 74.265 70.5886C73.5512 70.1661 72.9838 69.5337 72.6396 68.7768C72.2955 68.0198 72.1912 67.175 72.3409 66.3567C72.4906 65.5383 72.8871 64.7859 73.4766 64.2012C74.0662 63.6165 74.8204 63.2278 75.6371 63.0877C76.4539 62.9476 77.2938 63.0629 78.0432 63.4179C78.7926 63.7729 79.4153 64.3505 79.827 65.0726C80.2388 65.7947 80.4197 66.6263 80.3452 67.4551C80.2653 68.4155 79.8478 69.3161 79.1673 69.9958C78.4868 70.6755 77.5878 71.0899 76.6309 71.1651M65.3365 64.241C65.3153 66.6493 64.8219 69.0297 63.8846 71.2465C62.9473 73.4633 61.5843 75.473 59.8735 77.1609C58.1628 78.8487 56.1377 80.1816 53.9139 81.0836C51.6902 81.9855 49.3113 82.4388 46.9131 82.4175C44.5148 82.3962 42.1443 81.9008 39.9367 80.9596C37.7292 80.0183 35.7279 78.6496 34.0471 76.9317C32.3663 75.2138 31.0389 73.1802 30.1407 70.9472C29.2425 68.7141 28.7911 66.3252 28.8123 63.917L28.8848 40.6251C28.8848 40.5813 28.9021 40.5392 28.933 40.5082C28.9639 40.4772 29.0057 40.4598 29.0494 40.4598L65.2706 40.5788C65.2919 40.5788 65.313 40.5831 65.3327 40.5915C65.3523 40.5999 65.37 40.6122 65.3848 40.6276C65.3995 40.6431 65.411 40.6614 65.4186 40.6814C65.4261 40.7014 65.4296 40.7228 65.4287 40.7442L65.3365 64.241ZM37.3078 31.6113C38.9481 32.1294 40.6833 32.2706 42.3853 32.0245C44.0872 31.7783 45.7122 31.1512 47.1403 30.1894C47.1537 30.1797 47.1698 30.1745 47.1864 30.1745C47.2029 30.1745 47.219 30.1797 47.2325 30.1894C48.6515 31.1621 50.271 31.8006 51.9701 32.0571C53.6691 32.3136 55.404 32.1815 57.0451 31.6708C57.0643 31.6659 57.0846 31.6678 57.1025 31.6763C57.1204 31.6847 57.1349 31.6991 57.1434 31.717C57.152 31.735 57.1541 31.7553 57.1493 31.7746C57.1446 31.7939 57.1334 31.811 57.1176 31.8229L47.4169 37.9798C47.3488 38.0193 47.2715 38.0399 47.1929 38.0394C47.1111 38.0418 47.0306 38.0187 46.9624 37.9732L37.242 31.7435C37.2228 31.7348 37.2078 31.7187 37.2004 31.6989C37.193 31.679 37.1937 31.657 37.2025 31.6377C37.2112 31.6184 37.2272 31.6034 37.247 31.596C37.2667 31.5885 37.2886 31.5893 37.3078 31.5981M21.8381 66.5755C21.8984 67.4038 21.7043 68.2307 21.282 68.9448C20.8598 69.6589 20.2296 70.2258 19.4765 70.569C18.7234 70.9123 17.8836 71.0154 17.0703 70.8644C16.2571 70.7135 15.5095 70.3157 14.9283 69.7249C14.3471 69.134 13.9604 68.3783 13.8202 67.5599C13.68 66.7414 13.7931 65.8994 14.1442 65.1475C14.4954 64.3956 15.0677 63.7698 15.784 63.3547C16.5003 62.9396 17.3261 62.755 18.1501 62.8258C19.1054 62.9075 20.0007 63.3275 20.6762 64.0107C21.3517 64.6938 21.7635 65.5958 21.8381 66.5557M10.7676 58.9306C9.9427 58.994 9.11829 58.8018 8.4056 58.3799C7.6929 57.958 7.12622 57.3268 6.782 56.5714C6.43778 55.8159 6.3326 54.9726 6.48064 54.1553C6.62869 53.3379 7.02283 52.5858 7.60989 52.0005C8.19696 51.4151 8.9487 51.0247 9.76367 50.8818C10.5787 50.739 11.4177 50.8506 12.1675 51.2016C12.9173 51.5526 13.5419 52.1262 13.9569 52.8448C14.372 53.5635 14.5575 54.3927 14.4885 55.2206C14.4073 56.1805 13.9893 57.0804 13.3091 57.7598C12.6289 58.4393 11.7306 58.8541 10.7742 58.9306M7.0862 69.5118C6.26115 69.5766 5.43618 69.3856 4.72265 68.9646C4.00912 68.5437 3.44139 67.913 3.09611 67.1577C2.75084 66.4025 2.64463 65.5591 2.79185 64.7413C2.93906 63.9235 3.3326 63.1708 3.91933 62.5847C4.50607 61.9987 5.25774 61.6075 6.07288 61.464C6.88802 61.3206 7.72737 61.4317 8.47761 61.7825C9.22785 62.1332 9.85286 62.7067 10.2683 63.4254C10.6837 64.1442 10.8694 64.9736 10.8005 65.8017C10.7206 66.7622 10.3031 67.6628 9.62258 68.3425C8.94211 69.0222 8.04306 69.4366 7.0862 69.5118ZM21.7722 29.4025L20.5934 31.0822C20.5809 31.1001 20.5651 31.1153 20.5467 31.127C20.5283 31.1387 20.5078 31.1466 20.4864 31.1503C20.465 31.154 20.443 31.1534 20.4218 31.1485C20.4006 31.1436 20.3806 31.1346 20.3629 31.1219L18.4531 29.7993C18.4457 29.7919 18.437 29.786 18.4274 29.782C18.4178 29.778 18.4075 29.7759 18.3971 29.7759C18.3867 29.7759 18.3764 29.778 18.3668 29.782C18.3572 29.786 18.3485 29.7919 18.3411 29.7993L15.9242 33.2778C15.9117 33.2957 15.8958 33.3109 15.8774 33.3226C15.8591 33.3343 15.8386 33.3422 15.8172 33.3459C15.7957 33.3496 15.7738 33.349 15.7526 33.3441C15.7314 33.3392 15.7114 33.3302 15.6937 33.3175L13.9946 32.1271C13.977 32.1152 13.962 32.0999 13.9504 32.082C13.9388 32.0641 13.931 32.0441 13.9273 32.0231C13.9236 32.0021 13.9242 31.9806 13.9289 31.9599C13.9337 31.9391 13.9426 31.9195 13.9551 31.9023L16.372 28.4369C16.3873 28.4209 16.3958 28.3996 16.3958 28.3774C16.3958 28.3552 16.3873 28.3339 16.372 28.3179L14.4687 26.9952C14.4504 26.984 14.4346 26.969 14.4225 26.9511C14.4103 26.9333 14.4021 26.9131 14.3984 26.8918C14.3946 26.8705 14.3955 26.8487 14.4008 26.8277C14.4061 26.8068 14.4158 26.7873 14.4292 26.7704L15.6081 25.0642C15.6333 25.0284 15.6713 25.0036 15.7141 24.995C15.757 24.9864 15.8015 24.9946 15.8386 25.0179L17.7484 26.3405C17.764 26.354 17.7838 26.3615 17.8044 26.3615C17.8249 26.3615 17.8448 26.354 17.8604 26.3405L19.3553 24.1912L19.5924 23.854C19.6044 23.8355 19.6199 23.8197 19.638 23.8074C19.6561 23.7951 19.6765 23.7865 19.698 23.7822C19.7194 23.7779 19.7415 23.7779 19.763 23.7823C19.7844 23.7867 19.8048 23.7953 19.8229 23.8077L21.5154 24.998C21.5511 25.0234 21.5757 25.0615 21.5843 25.1046C21.5928 25.1476 21.5847 25.1923 21.5615 25.2295L21.3771 25.4874L19.8295 27.7227C19.8221 27.7301 19.8163 27.7388 19.8123 27.7485C19.8083 27.7581 19.8062 27.7685 19.8062 27.7789C19.8062 27.7894 19.8083 27.7997 19.8123 27.8093C19.8163 27.819 19.8221 27.8277 19.8295 27.8351L21.7327 29.1578C21.7505 29.1703 21.7657 29.1862 21.7773 29.2047C21.789 29.2231 21.7969 29.2437 21.8005 29.2652C21.8042 29.2868 21.8036 29.3088 21.7987 29.3301C21.7939 29.3514 21.7849 29.3715 21.7722 29.3892M72.64 29.3297L74.5564 28.0071C74.5638 27.9997 74.5696 27.9909 74.5736 27.9813C74.5776 27.9716 74.5797 27.9613 74.5797 27.9509C74.5797 27.9404 74.5776 27.9301 74.5736 27.9204C74.5696 27.9108 74.5638 27.902 74.5564 27.8946L73.0219 25.6528L72.8376 25.3948C72.8144 25.3576 72.8062 25.3129 72.8148 25.2699C72.8234 25.2269 72.848 25.1888 72.8837 25.1634L74.5893 23.9862C74.6065 23.9737 74.626 23.9648 74.6467 23.96C74.6674 23.9552 74.6888 23.9546 74.7097 23.9583C74.7306 23.962 74.7505 23.9699 74.7683 23.9815C74.7861 23.9931 74.8014 24.0082 74.8133 24.0259L75.0503 24.3698L76.5321 26.5323C76.5477 26.5458 76.5675 26.5532 76.5881 26.5532C76.6087 26.5532 76.6285 26.5458 76.6441 26.5323L78.5605 25.2097C78.5782 25.197 78.5982 25.1879 78.6194 25.1831C78.6406 25.1782 78.6626 25.1776 78.684 25.1813C78.7054 25.185 78.7259 25.1929 78.7443 25.2046C78.7626 25.2162 78.7785 25.2315 78.791 25.2493L79.9632 26.9622C79.9756 26.9803 79.9842 27.0008 79.9885 27.0223C79.9929 27.0439 79.9929 27.0661 79.9886 27.0876C79.9843 27.1092 79.9758 27.1297 79.9635 27.1479C79.9512 27.1661 79.9355 27.1816 79.9172 27.1936L78.0073 28.5163C77.9999 28.5237 77.9941 28.5324 77.9901 28.5421C77.9861 28.5517 77.9841 28.5621 77.9841 28.5725C77.9841 28.5829 77.9861 28.5933 77.9901 28.6029C77.9941 28.6126 77.9999 28.6213 78.0073 28.6287L80.3979 32.1271C80.4209 32.1451 80.4385 32.169 80.4488 32.1964C80.4591 32.2238 80.4617 32.2535 80.4563 32.2822C80.4508 32.3109 80.4375 32.3376 80.418 32.3592C80.3984 32.3809 80.3732 32.3967 80.3452 32.4049L78.6395 33.5886C78.6025 33.6119 78.558 33.6201 78.5151 33.6115C78.4723 33.6029 78.4343 33.5781 78.409 33.5424L76.0118 30.0506C76.0045 30.0432 75.9958 30.0373 75.9862 30.0333C75.9766 30.0293 75.9663 30.0272 75.9559 30.0272C75.9455 30.0272 75.9352 30.0293 75.9256 30.0333C75.916 30.0373 75.9072 30.0432 75.8999 30.0506L73.9835 31.3732C73.9474 31.3961 73.904 31.4041 73.8622 31.3954C73.8204 31.3868 73.7836 31.3622 73.7595 31.3269L72.5873 29.6141C72.5739 29.5972 72.5642 29.5777 72.5589 29.5567C72.5535 29.5358 72.5527 29.514 72.5565 29.4927C72.5602 29.4714 72.5684 29.4512 72.5805 29.4334C72.5927 29.4155 72.6084 29.4005 72.6268 29.3892M34.9568 26.0826C34.9228 26.0827 34.8898 26.0718 34.8625 26.0515C34.8353 26.0313 34.8152 26.0028 34.8053 25.9702C34.5147 25.0197 33.9168 24.1935 33.1062 23.6225L23.0499 16.5331C22.2612 15.9801 21.286 15.7641 20.3389 15.9328C19.3917 16.1014 18.5499 16.6409 17.9987 17.4325L17.0569 18.808L13.1055 16.2686C13.0687 16.2463 13.0247 16.2393 12.9828 16.2492C12.941 16.2591 12.9046 16.285 12.8816 16.3215L11.2879 18.8279C11.2757 18.8455 11.2672 18.8655 11.263 18.8865C11.2587 18.9075 11.2587 18.9292 11.263 18.9502C11.2673 18.9712 11.2758 18.9912 11.288 19.0088C11.3002 19.0264 11.3158 19.0413 11.334 19.0527L15.1471 21.5195L6.52641 33.959C6.51378 33.9768 6.50478 33.9969 6.49992 34.0181C6.49507 34.0394 6.49446 34.0615 6.49814 34.083C6.50181 34.1045 6.50969 34.1251 6.52133 34.1435C6.53296 34.162 6.54812 34.1779 6.56593 34.1904L16.3654 41.055C16.3839 41.0671 16.4046 41.0753 16.4263 41.0791C16.448 41.083 16.4703 41.0825 16.4918 41.0775C16.5133 41.0726 16.5336 41.0634 16.5515 41.0504C16.5694 41.0375 16.5845 41.021 16.5959 41.0021L27.4228 25.4544C28.3908 24.1317 30.3468 24.1317 31.6969 25.0642C32.2705 25.4682 32.7027 26.0435 32.9321 26.7084C33.1615 27.3732 33.1763 28.0938 32.9745 28.7676C32.9671 28.7917 32.9544 28.8139 32.9372 28.8323C32.92 28.8508 32.8988 28.865 32.8753 28.8739C32.8517 28.8829 32.8265 28.8863 32.8014 28.8839C32.7764 28.8815 32.7522 28.8734 32.7308 28.8602L29.1087 26.5389C29.0727 26.516 29.0292 26.5081 28.9874 26.5167C28.9457 26.5253 28.9089 26.5499 28.8848 26.5852L27.1857 29.0255C27.1724 29.0433 27.163 29.0638 27.1582 29.0855C27.1533 29.1072 27.153 29.1297 27.1574 29.1516C27.1617 29.1734 27.1706 29.194 27.1834 29.2122C27.1962 29.2304 27.2127 29.2456 27.2318 29.257L40.6534 37.8542C40.6665 37.865 40.6761 37.8794 40.6811 37.8957C40.686 37.912 40.686 37.9294 40.681 37.9457C40.6761 37.962 40.6665 37.9765 40.6533 37.9873C40.6402 37.9981 40.6242 38.0047 40.6073 38.0063L26.593 37.96C26.5493 37.96 26.5074 37.9774 26.4765 38.0084C26.4457 38.0394 26.4283 38.0815 26.4283 38.1253L26.3822 51.2063C26.3825 51.2192 26.3796 51.2319 26.3739 51.2435C26.3682 51.255 26.3597 51.2649 26.3493 51.2725L16.9581 57.2244C16.9439 57.2354 16.9263 57.2413 16.9083 57.2409C16.8904 57.2406 16.873 57.2341 16.8592 57.2225C16.8454 57.211 16.8359 57.195 16.8323 57.1773C16.8288 57.1596 16.8313 57.1412 16.8396 57.1252C17.2237 56.0254 17.3199 54.845 17.1188 53.6972C16.9178 52.5494 16.4263 51.4728 15.6915 50.5707C14.9567 49.6686 14.0034 48.9713 12.9229 48.5458C11.8425 48.1203 10.6713 47.9809 9.52169 48.1409C8.37212 48.3009 7.28281 48.7549 6.35834 49.4595C5.43387 50.164 4.70528 51.0954 4.24252 52.1641C3.77977 53.2329 3.59838 54.4032 3.71578 55.5626C3.83318 56.7221 4.24542 57.8317 4.91293 58.7851C4.92101 58.7953 4.92648 58.8073 4.92885 58.8201C4.93122 58.8329 4.93042 58.8461 4.92652 58.8585C4.92261 58.8709 4.91573 58.8822 4.90647 58.8913C4.8972 58.9004 4.88585 58.9071 4.87341 58.9107C3.88045 59.2087 2.96895 59.7318 2.20929 60.4397C1.44963 61.1476 0.862123 62.0213 0.492125 62.9934C0.122128 63.9655 -0.0204624 65.01 0.0753624 66.0462C0.171187 67.0824 0.502864 68.0827 1.04479 68.9698C1.58671 69.8568 2.32438 70.607 3.20086 71.1623C4.07733 71.7176 5.06917 72.0632 6.09979 72.1725C7.13041 72.2817 8.17225 72.1517 9.14487 71.7924C10.1175 71.4331 10.9949 70.8542 11.7093 70.1003C11.7165 70.0894 11.7263 70.0805 11.7378 70.0743C11.7493 70.0681 11.7622 70.0649 11.7752 70.0649C11.7882 70.0649 11.8011 70.0681 11.8126 70.0743C11.8241 70.0805 11.8338 70.0894 11.8411 70.1003C12.3852 71.1258 13.1821 71.9939 14.1558 72.6216C15.1294 73.2494 16.2472 73.6158 17.4021 73.6859C18.5571 73.756 19.7106 73.5273 20.7524 73.0219C21.7943 72.5164 22.6895 71.751 23.3526 70.7988C24.0157 69.8466 24.4245 68.7396 24.5398 67.5835C24.6552 66.4273 24.4732 65.2609 24.0114 64.1955C23.5495 63.1302 22.8233 62.2017 21.902 61.4987C20.9807 60.7957 19.8953 60.3419 18.7494 60.1805C18.7331 60.1756 18.7188 60.1656 18.7086 60.1519C18.6985 60.1382 18.693 60.1215 18.693 60.1044C18.693 60.0873 18.6985 60.0707 18.7086 60.057C18.7188 60.0433 18.7331 60.0333 18.7494 60.0284L26.2768 55.2668C26.2888 55.2582 26.3028 55.2531 26.3175 55.2521C26.3321 55.2511 26.3468 55.2542 26.3598 55.2611C26.3728 55.2679 26.3836 55.2783 26.391 55.291C26.3985 55.3037 26.4023 55.3182 26.402 55.333L26.3427 63.8839C26.2947 69.4088 28.4342 74.7266 32.2907 78.6674C36.1471 82.6082 41.4046 84.8492 46.9065 84.8975C52.4083 84.9457 57.704 82.7972 61.6283 78.9246C65.5527 75.052 67.7844 69.7725 67.8324 64.2476V55.4586C67.833 55.4442 67.8372 55.4301 67.8447 55.4177C67.8521 55.4053 67.8626 55.395 67.8751 55.3877C67.8876 55.3805 67.9017 55.3765 67.9161 55.3762C67.9305 55.3758 67.9448 55.3792 67.9576 55.3859L75.4587 60.1805C75.4724 60.1878 75.484 60.1987 75.492 60.2121C75.5001 60.2255 75.5043 60.2409 75.5043 60.2565C75.5043 60.2722 75.5001 60.2875 75.492 60.3009C75.484 60.3144 75.4724 60.3253 75.4587 60.3326C74.3099 60.485 73.2193 60.931 72.2913 61.6278C71.3633 62.3246 70.629 63.249 70.1586 64.3124C69.6881 65.3758 69.4974 66.5426 69.6045 67.7012C69.7117 68.8598 70.1132 69.9714 70.7707 70.9296C71.4281 71.8878 72.3194 72.6605 73.3593 73.1737C74.3993 73.687 75.553 73.9236 76.71 73.861C77.8671 73.7983 78.9888 73.4385 79.9677 72.816C80.9467 72.1934 81.7501 71.329 82.3012 70.3054C82.3084 70.2944 82.3182 70.2855 82.3297 70.2793C82.3411 70.2731 82.354 70.2699 82.367 70.2699C82.3801 70.2699 82.3929 70.2731 82.4044 70.2793C82.4159 70.2855 82.4257 70.2944 82.4329 70.3054C83.1383 71.0809 84.013 71.6817 84.9884 72.0608C85.9638 72.4398 87.0135 72.5867 88.055 72.49C89.0964 72.3933 90.1014 72.0556 90.9911 71.5034C91.8808 70.9512 92.631 70.1995 93.1828 69.3073C93.7346 68.415 94.0731 67.4065 94.1716 66.3609C94.2701 65.3153 94.1261 64.2609 93.7507 63.2806C93.3753 62.3003 92.7789 61.4206 92.0081 60.7106C91.2373 60.0006 90.3133 59.4796 89.3083 59.1885C89.2953 59.1857 89.2832 59.1796 89.2732 59.1708C89.2632 59.1621 89.2555 59.1509 89.2509 59.1384C89.2463 59.1259 89.2449 59.1124 89.2469 59.0992C89.2489 59.086 89.2542 59.0735 89.2622 59.0628C90.0663 57.9381 90.5056 56.5918 90.5201 55.2073C90.5545 54.2979 90.4067 53.3908 90.0856 52.5398C89.7644 51.6888 89.2764 50.9113 88.6504 50.2532C88.0244 49.5951 87.2732 49.07 86.4413 48.7089C85.6094 48.3477 84.7138 48.158 83.8076 48.1509C82.9014 48.1438 82.0029 48.3195 81.1656 48.6676C80.3282 49.0157 79.569 49.529 78.9328 50.1772C78.2967 50.8254 77.7967 51.5953 77.4623 52.4412C77.128 53.287 76.9662 54.1917 76.9865 55.1015C76.983 55.8578 77.1077 56.6093 77.3553 57.3236C77.3603 57.3401 77.3602 57.3578 77.3551 57.3743C77.3499 57.3908 77.34 57.4053 77.3265 57.416C77.3129 57.4267 77.2965 57.4331 77.2794 57.4343C77.2622 57.4355 77.2451 57.4315 77.2302 57.4228L67.8851 51.4246C67.872 51.4179 67.8611 51.4074 67.854 51.3944C67.847 51.3814 67.844 51.3665 67.8456 51.3518L67.8851 38.2774C67.8851 38.2336 67.8678 38.1915 67.8369 38.1605C67.806 38.1295 67.7642 38.1121 67.7205 38.1121L53.7062 38.0658C53.6872 38.068 53.6681 38.0633 53.6524 38.0525C53.6367 38.0417 53.6253 38.0255 53.6205 38.007C53.6157 37.9885 53.6177 37.9688 53.6262 37.9517C53.6347 37.9345 53.6491 37.9211 53.6667 37.9137L67.1739 29.3892C67.1922 29.3772 67.208 29.3617 67.2202 29.3434C67.2325 29.3252 67.241 29.3048 67.2453 29.2832C67.2496 29.2617 67.2496 29.2395 67.2452 29.2179C67.2409 29.1964 67.2323 29.1759 67.22 29.1578L65.534 26.7043C65.51 26.6689 65.4732 26.6444 65.4314 26.6357C65.3896 26.6271 65.3462 26.6351 65.3101 26.658L61.6814 28.9528C61.6595 28.966 61.6349 28.9741 61.6094 28.9765C61.5839 28.9788 61.5582 28.9755 61.5342 28.9666C61.5102 28.9577 61.4885 28.9435 61.4707 28.9251C61.4528 28.9067 61.4393 28.8845 61.4312 28.8602C61.2338 28.1833 61.255 27.461 61.4916 26.7969C61.7282 26.1328 62.1681 25.561 62.7483 25.1634C64.0654 24.2243 66.0411 24.2772 67.0158 25.5866L77.711 41.2137C77.7234 41.2316 77.7393 41.2468 77.7577 41.2585C77.776 41.2702 77.7965 41.2781 77.818 41.2818C77.8394 41.2855 77.8613 41.2849 77.8825 41.28C77.9037 41.2751 77.9238 41.2661 77.9415 41.2534L87.82 34.455C87.8375 34.4431 87.8526 34.4277 87.8641 34.4098C87.8757 34.392 87.8835 34.372 87.8872 34.351C87.8909 34.33 87.8904 34.3085 87.8856 34.2877C87.8808 34.267 87.8719 34.2474 87.8595 34.2301L79.2981 21.8237C79.2907 21.8163 79.2849 21.8076 79.2809 21.7979C79.2769 21.7883 79.2748 21.7779 79.2748 21.7675C79.2748 21.757 79.2769 21.7467 79.2809 21.737C79.2849 21.7274 79.2907 21.7186 79.2981 21.7113L83.0783 19.3173C83.1145 19.2941 83.1404 19.2576 83.1502 19.2156C83.16 19.1736 83.1531 19.1294 83.131 19.0924L81.5767 16.5331C81.5526 16.4979 81.5163 16.473 81.4749 16.4633C81.4336 16.4535 81.39 16.4595 81.3528 16.4802L77.4541 18.9469C77.4386 18.9604 77.4187 18.9678 77.3981 18.9678C77.3776 18.9678 77.3577 18.9604 77.3422 18.9469L76.4465 17.6243C75.9014 16.8282 75.0638 16.282 74.1178 16.1059C73.1718 15.9298 72.1949 16.1382 71.4019 16.6852L61.2929 23.682C60.4761 24.2438 59.8726 25.0666 59.5806 26.0165C59.5689 26.0498 59.5477 26.0789 59.5196 26.1001C59.4914 26.1213 59.4577 26.1336 59.4225 26.1355L34.9568 26.0826Z" fill="#890438"/>
</g>
<defs>
<clipPath id="clip0_1_23">
<rect width="202.938" height="85" fill="white"/>
</clipPath>
</defs>
</svg>
