<svg width="108" height="50" viewBox="0 0 108 50" fill="none" xmlns="http://www.w3.org/2000/svg">
<path d="M6.88008 11.2033H9.48207C11.075 11.2033 11.997 10.1722 11.997 8.86774C11.997 7.56333 11.0443 6.50123 9.48207 6.50123H6.88008V11.2033ZM1 24V1H9.57939C14.4095 1 18 4.35127 18 8.89868C18 13.3172 14.4146 16.7045 9.57939 16.7045H6.88008V24H1Z" fill="#4E5051"/>
<path d="M20.0262 13.3693V1H26.071V13.3693C26.071 16.3418 28.1662 18.4935 31.0105 18.4935C33.9386 18.4935 35.9814 16.3112 35.9814 13.3948V1H42V13.3693C42 19.4877 37.3171 24 31 24C24.6829 24 20 19.4724 20 13.3693" fill="#4E5051"/>
<path d="M44 11.9921C44 5.22974 49.2887 0 56.4178 0C62.6532 0 67.212 4.15009 67.9683 9.67476H61.8969C61.5515 8.5024 60.8273 7.47626 59.8367 6.75544C58.8461 6.03462 57.6444 5.65939 56.4178 5.68794C52.8056 5.68794 50.3464 8.42657 50.3464 11.9921C50.3464 15.5576 52.8374 18.312 56.4178 18.312C57.6442 18.3564 58.8497 17.9868 59.8385 17.2631C60.8274 16.5393 61.5416 15.504 61.8651 14.3252H68C67.1803 19.9446 62.6532 23.9999 56.4178 23.9999C49.3257 24.021 44 18.8229 44 11.9921Z" fill="#4E5051"/>
<path d="M76.863 11.2033H79.4693C81.0566 11.2033 81.9783 10.1722 81.9783 8.86774C81.9783 7.56333 81.0259 6.50123 79.4693 6.50123H76.863V11.2033ZM71 24V1H79.5768C84.4054 1 88 4.35642 88 8.89868C88 13.3172 84.4157 16.7045 79.5768 16.7045H76.8783V24H71Z" fill="#4E5051"/>
<path d="M96.8005 11.3824H99.1035C100.812 11.3824 101.884 10.3524 101.884 8.80743C101.884 7.26243 100.776 6.28392 99.073 6.28392H96.8005V11.3824ZM91 23.9743V1H99.3882C104.121 1 107.715 4.38356 107.715 8.72503C107.71 10.0688 107.34 11.3852 106.645 12.5299C105.95 13.6745 104.957 14.6032 103.775 15.2141L108 24H101.661L98.285 16.3316H96.8005V23.9743H91Z" fill="#4E5051"/>
<path d="M40.4335 49.6374C40.8109 49.6341 41.1865 49.5819 41.5516 49.4821C41.9284 49.3833 42.28 49.2005 42.5821 48.9463C42.8647 48.723 43.1028 48.4445 43.2829 48.1265C43.4716 47.76 43.607 47.3664 43.6848 46.9586C43.7868 46.48 43.8386 45.9914 43.8394 45.5012C43.8397 44.8951 43.7546 44.2922 43.5869 43.7118C43.4543 43.267 43.2331 42.8562 42.9377 42.5063C42.6394 42.1549 42.2698 41.8767 41.8556 41.6919C41.4296 41.4933 40.9673 41.3928 40.5005 41.3972C40.1143 41.3987 39.7311 41.4675 39.3669 41.6008C39.0328 41.7211 38.7222 41.9025 38.4497 42.1366C38.1797 42.3875 37.9531 42.6847 37.7798 43.0152C37.5703 43.4108 37.4143 43.8345 37.3161 44.2743C37.2152 44.6679 37.1599 45.0726 37.1512 45.4798C37.1592 45.903 37.2145 46.3237 37.3161 46.7335C37.4054 47.1578 37.5511 47.5672 37.7489 47.9497C37.9348 48.2839 38.1656 48.5888 38.4342 48.8552C38.9815 49.3695 39.6959 49.649 40.4335 49.6374ZM35.9867 45.4798C35.9809 45.074 36.033 44.6696 36.1413 44.2797C36.269 43.876 36.442 43.4894 36.6565 43.1278C36.9027 42.7258 37.2169 42.3736 37.584 42.0884C38.029 41.7638 38.5214 41.516 39.0422 41.3543C39.5776 41.1923 40.1337 41.1165 40.6911 41.1293C41.1367 41.1322 41.5801 41.1953 42.0102 41.3168C42.4214 41.4401 42.8148 41.6203 43.1798 41.8526C43.5784 42.1282 43.9272 42.4746 44.2104 42.8759C44.4464 43.1847 44.631 43.5324 44.7566 43.9046C44.9194 44.3884 45.0013 44.8976 44.9987 45.4102C45.009 45.9009 44.957 46.3909 44.8442 46.8675C44.7129 47.2716 44.5236 47.6528 44.2825 47.998C43.9902 48.3878 43.6428 48.7292 43.252 49.0106C42.8902 49.291 42.4838 49.5032 42.0514 49.6374C41.5511 49.7998 41.0297 49.8811 40.5056 49.8785C39.9935 49.8863 39.4831 49.8159 38.9907 49.6696C38.598 49.5594 38.223 49.3897 37.8777 49.166C37.5297 48.9247 37.2203 48.6282 36.9606 48.2873C36.6488 47.9123 36.4076 47.4798 36.2495 47.0121C36.0812 46.5223 35.9974 46.0053 36.0022 45.4852M28.3092 41.2365H28.4586C28.6029 41.2365 28.8399 41.2365 29.1697 41.2365H29.5356C29.6231 41.2365 29.8189 41.2365 30.1281 41.2365L31.2205 41.1722C31.551 41.1397 31.883 41.1254 32.2149 41.1293C32.7632 41.1072 33.3097 41.2077 33.8174 41.424C34.2139 41.6182 34.5366 41.9444 34.7346 42.3509C34.9417 42.738 35.0532 43.1724 35.0592 43.6153C35.0627 43.9479 35.0026 44.2778 34.8823 44.5859C34.762 44.8941 34.5839 45.1743 34.3585 45.4102C34.1065 45.6697 33.8044 45.8708 33.4722 46C33.1401 46.1293 32.7853 46.1839 32.4314 46.1603C32.2435 46.1663 32.0559 46.1428 31.8749 46.0906C31.6902 46.0311 31.5162 45.9406 31.3596 45.8227C31.2894 45.7838 31.236 45.7187 31.2102 45.6405C31.2275 45.6108 31.2525 45.5867 31.2823 45.5709C31.3445 45.5729 31.4058 45.5874 31.4627 45.6138C31.642 45.675 31.8305 45.7022 32.0191 45.6941C32.3538 45.6969 32.6829 45.6062 32.9724 45.4316C33.2696 45.2683 33.5095 45.0113 33.6577 44.6976C33.8856 44.2256 33.9448 43.6849 33.825 43.1717C33.7052 42.6585 33.414 42.2062 33.0033 41.8955C32.8002 41.7537 32.5728 41.6537 32.3335 41.6008C32.0974 41.5374 31.8556 41.4997 31.6121 41.4883C31.2933 41.4557 30.9715 41.496 30.6691 41.6062V41.7026V42.4527V42.5866C30.6691 42.7045 30.6691 42.8831 30.6691 43.1224C30.6691 44.0332 30.6691 44.5958 30.7104 44.8155V45.1959L30.7928 48.2337C30.7928 48.2766 30.7928 48.3623 30.7928 48.4855C30.7928 48.6087 30.7928 48.7052 30.7928 48.7909C30.7876 48.9548 30.8032 49.1188 30.8392 49.2785C30.9422 49.3106 31.2462 49.3803 31.7409 49.4981L32.117 49.5999C32.1553 49.6165 32.1865 49.6469 32.2046 49.6857C32.2046 49.7553 32.1686 49.7982 32.1377 49.8142C32.0858 49.8381 32.0294 49.8491 31.9728 49.8464L31.6172 49.8142C31.3299 49.7784 31.0409 49.7587 30.7516 49.7553L29.6283 49.7982H28.9481H28.5772V49.6374L29.4119 49.466C29.5044 49.4499 29.5913 49.4093 29.6644 49.3481C29.7139 49.2339 29.7352 49.1087 29.7262 48.9838C29.7262 48.9409 29.7262 48.8552 29.7262 48.7213C29.7262 48.5873 29.7262 48.5016 29.7262 48.3355C29.7262 47.8104 29.7056 46.6942 29.6644 44.9869C29.6644 44.1886 29.6644 43.3796 29.6644 42.5545V42.4366C29.6644 42.1205 29.618 41.9008 29.5201 41.8365C29.1605 41.6149 28.7528 41.4914 28.335 41.4776C28.3304 41.4366 28.3304 41.3953 28.335 41.3543C28.3361 41.309 28.3485 41.2647 28.371 41.2258M22.5331 41.1722C22.5529 41.2289 22.5633 41.2887 22.564 41.349C22.5678 41.3864 22.5678 41.4241 22.564 41.4615C22.4759 41.4924 22.3838 41.5086 22.2909 41.5097C22.2412 41.5137 22.1912 41.5137 22.1415 41.5097H21.9714C21.8092 41.5024 21.6484 41.5433 21.5077 41.6276C21.4722 41.649 21.4411 41.6776 21.4164 41.7116C21.3916 41.7457 21.3736 41.7845 21.3634 41.8258L21.3016 42.5813V45.8816C21.2742 46.6355 21.3121 47.3904 21.4149 48.1373C21.4741 48.409 21.6001 48.6601 21.7808 48.8659C21.9967 49.0887 22.2622 49.2525 22.5537 49.3428C22.8744 49.4631 23.2123 49.5265 23.5533 49.5303C24.1269 49.5611 24.6992 49.4491 25.2228 49.2035C25.5894 49.0081 25.8831 48.6914 26.0575 48.3034C26.2344 47.7369 26.2992 47.1392 26.2481 46.546C26.2481 46.546 26.2481 46.3424 26.2481 46.0102V45.8174C26.2481 45.7477 26.2481 45.6084 26.2481 45.3994C26.2481 45.1905 26.2481 45.0726 26.2481 45.0405L26.1502 43.1224C26.1481 42.7411 26.1119 42.3609 26.042 41.9866C26.0093 41.8819 25.9463 41.7902 25.8617 41.724C25.5692 41.5508 25.2473 41.438 24.9136 41.3918C24.8971 41.3285 24.885 41.2641 24.8775 41.199C25.0424 41.199 25.2125 41.199 25.3928 41.199C25.573 41.1889 25.7536 41.1889 25.9338 41.199H26.3924H27.423H27.6188V41.4401C27.2925 41.4496 26.9724 41.5337 26.681 41.6865C26.6215 41.7602 26.5771 41.8457 26.5506 41.9378C26.524 42.03 26.5158 42.1268 26.5264 42.2223C26.5264 42.3616 26.5367 42.6616 26.5573 43.1224L26.5934 44.5047V45.0405V45.7316C26.6059 46.3273 26.5818 46.9233 26.5212 47.5158C26.48 47.8865 26.3826 48.2482 26.2327 48.5873C26.0994 48.8551 25.9133 49.0906 25.6865 49.2785C25.4025 49.5155 25.0745 49.6887 24.7229 49.7875C24.3433 49.9239 23.9447 49.9945 23.543 49.9964C23.0995 50.0137 22.6558 49.9686 22.2239 49.8625C21.7997 49.7395 21.4024 49.5321 21.0542 49.2517C20.801 49.0548 20.5947 48.8 20.4514 48.5069C20.2815 48.0478 20.2043 47.5572 20.2247 47.0657V46.5996V44.7404V43.2349V42.2169C20.2398 42.0324 20.2059 41.8471 20.1268 41.6812C20.1046 41.6456 20.074 41.6165 20.0379 41.5968C20.0018 41.5771 19.9614 41.5674 19.9207 41.5687H19.5394C19.3629 41.5848 19.1855 41.5535 19.0241 41.4776C19.0194 41.4438 19.0194 41.4095 19.0241 41.3758C19.0235 41.3562 19.0274 41.3367 19.0354 41.319C19.0435 41.3013 19.0555 41.2859 19.0705 41.274C19.1243 41.2441 19.1847 41.2293 19.2457 41.2311H20.8533L22.5331 41.1722ZM13.2531 45.1744H13.5056C13.8639 45.1703 14.221 45.1308 14.5722 45.0566C14.8184 45.0175 15.0529 44.9203 15.2575 44.7726C15.4489 44.6221 15.5997 44.4228 15.6955 44.194C15.8127 43.9473 15.8744 43.6761 15.8758 43.401C15.8651 43.0599 15.7692 42.7275 15.5976 42.4366C15.4329 42.1612 15.1948 41.9416 14.9123 41.8044C14.5335 41.6215 14.1188 41.5335 13.7014 41.5472C13.5538 41.5379 13.4058 41.5379 13.2582 41.5472C13.2378 41.725 13.2274 41.9039 13.2273 42.083L13.2582 43.326V43.8618C13.2582 44.21 13.2582 44.644 13.2582 45.1851M10.8777 49.5303C11.224 49.4982 11.5681 49.4445 11.9082 49.3695C11.9444 49.3495 11.9762 49.3221 12.0019 49.289C12.0276 49.2558 12.0465 49.2176 12.0577 49.1767V49.1017C12.0577 48.9945 12.0577 48.5927 12.1143 47.9015C12.1143 47.7086 12.1143 47.5104 12.1143 47.3282V46.5353V45.6405V42.7634C12.1456 42.4513 12.1068 42.1358 12.001 41.8419C11.8409 41.6917 11.6343 41.6062 11.4187 41.6008C11.2329 41.5802 11.0487 41.5462 10.8674 41.499C10.8504 41.4876 10.8366 41.4716 10.8276 41.4527C10.8185 41.4339 10.8145 41.4129 10.8159 41.3918C10.8191 41.3497 10.8277 41.3083 10.8416 41.2686C10.9318 41.2192 11.034 41.1987 11.1353 41.2097H11.3105H11.5785H12.0937H13.7838C14.4585 41.1747 15.1344 41.247 15.7882 41.424C16.1585 41.555 16.4796 41.8044 16.7054 42.1366C16.8706 42.388 16.9793 42.6748 17.0234 42.9758C17.0676 43.2769 17.046 43.5843 16.9604 43.8755C16.8748 44.1667 16.7274 44.4342 16.5289 44.6581C16.3305 44.882 16.0861 45.0566 15.814 45.1691C15.6987 45.2323 15.5869 45.302 15.479 45.378C15.6608 45.7725 15.8621 46.157 16.0819 46.5299L16.9012 47.9765C17.098 48.3305 17.322 48.6674 17.571 48.9838C17.7013 49.124 17.8549 49.2383 18.0245 49.3213C18.3133 49.441 18.614 49.5273 18.921 49.5785V49.7767C18.3336 49.7767 17.6483 49.7767 16.86 49.7767C16.7827 49.7813 16.7053 49.7813 16.6281 49.7767C16.3241 49.1767 15.9737 48.5123 15.5563 47.7837L14.6082 45.9834C14.5278 45.8445 14.4208 45.7242 14.2939 45.6298C14.1904 45.5814 14.0777 45.5576 13.9642 45.5602H13.4231H13.2376C13.2376 45.7048 13.2376 45.9942 13.2376 46.4335V48.7105C13.234 48.8303 13.2496 48.9498 13.284 49.0642C13.3217 49.15 13.3826 49.2226 13.4592 49.2731C13.6939 49.372 13.9372 49.4474 14.1857 49.4981L14.4485 49.5678C14.4845 49.6189 14.5027 49.6813 14.5 49.7446C14.419 49.7646 14.336 49.7754 14.2527 49.7767C13.8714 49.7767 13.5983 49.7767 13.4489 49.7767H13.2479H12.3771H11.5063H10.9292H10.8004V49.7071C10.8048 49.6788 10.8148 49.6517 10.8299 49.6277C10.845 49.6037 10.8648 49.5833 10.888 49.5678M8.9403 41.649L9.01244 42.6724C9.01244 42.9831 9.05366 43.2081 9.05366 43.2992L8.87331 43.3314C8.64226 42.7429 8.27604 42.2223 7.80671 41.8151C7.35933 41.4738 6.8156 41.2966 6.26091 41.3115C5.65747 41.2849 5.05497 41.3833 4.48839 41.6008C3.85419 41.9072 3.31774 42.3962 2.94258 43.0099C2.49724 43.733 2.27106 44.5786 2.29334 45.437C2.29183 45.9346 2.37738 46.4284 2.54583 46.8943C2.70816 47.3328 2.93405 47.743 3.21567 48.1105C3.51 48.4876 3.85743 48.8164 4.24621 49.0856C4.51455 49.272 4.81046 49.4113 5.12216 49.4981C5.41756 49.5565 5.71815 49.5817 6.01873 49.5731C6.30752 49.5721 6.595 49.5325 6.87407 49.4553C7.1247 49.4109 7.36247 49.3084 7.56969 49.1552C7.71759 49.0467 7.83212 48.896 7.89946 48.7213C7.96845 48.416 7.9962 48.1022 7.9819 47.789C8.02664 47.3365 7.97564 46.8794 7.83247 46.4496C7.73457 46.3156 7.42541 46.2406 6.91014 46.1978H6.65251H6.47732H6.37427L6.27636 46.0263C6.28599 45.9947 6.30178 45.9655 6.32274 45.9406C6.80561 45.8922 7.29085 45.8744 7.77579 45.887H8.58476H9.24431H9.84202H10.2748C10.3058 45.887 10.3212 45.887 10.3264 45.887C10.3301 45.8954 10.332 45.9046 10.332 45.9138C10.332 45.923 10.3301 45.9322 10.3264 45.9406C10.3237 46.0056 10.3151 46.0702 10.3006 46.1335C10.1617 46.1658 10.0203 46.1855 9.87809 46.1924H9.46072C9.3969 46.1898 9.33331 46.2018 9.27452 46.2278C9.21572 46.2537 9.16317 46.2929 9.12064 46.3424C9.06116 46.5007 9.03993 46.6718 9.05881 46.8407V47.7194C9.07795 48.1012 9.05548 48.484 8.99183 48.8606C8.96327 48.9632 8.90585 49.0546 8.82694 49.1231C8.67124 49.245 8.4971 49.3392 8.31167 49.4017C7.98032 49.5447 7.63468 49.649 7.28114 49.7124C6.74226 49.8151 6.19559 49.8671 5.64774 49.8678C4.94655 49.8889 4.24768 49.7744 3.58667 49.5303C3.06524 49.3212 2.59016 49.004 2.19029 48.598C1.85228 48.2598 1.5764 47.8604 1.37617 47.4193C1.1263 46.8435 0.998038 46.2187 1.00002 45.587C1.00657 44.7867 1.20871 44.0013 1.58743 43.3046C2.03462 42.5112 2.70307 41.8778 3.50422 41.4883C4.29966 41.1302 5.16313 40.9653 6.02904 41.0061C6.63408 40.9861 7.23895 41.0509 7.82732 41.199C8.21657 41.2947 8.59114 41.4461 8.9403 41.649Z" fill="#4E5051"/>
<path d="M101.869 45.6264L102.805 43.367C102.935 43.6149 103.102 43.9611 103.325 44.4195C103.549 44.8779 103.7 45.2849 103.845 45.6357H103.684H101.895M98.8479 48.9102H98.9571C99.2652 48.9084 99.5729 48.8865 99.8775 48.8447L100.143 48.7979C101.152 48.8634 101.791 48.8962 102.062 48.8962C102.067 48.8511 102.067 48.8056 102.062 48.7605C102.062 48.709 102.062 48.6108 102.062 48.4705C101.796 48.4377 101.64 48.4143 101.604 48.405C101.4 48.3993 101.201 48.3461 101.027 48.2506C100.996 48.2218 100.972 48.1871 100.958 48.1491C100.943 48.1111 100.938 48.0707 100.944 48.0308C100.963 47.8894 101.003 47.7511 101.063 47.6191C101.354 46.8847 101.542 46.4309 101.635 46.2438H104.11L104.63 47.3852L104.89 47.9606C104.911 48.0116 104.921 48.0654 104.922 48.1196C104.921 48.1446 104.915 48.1692 104.904 48.1918C104.892 48.2144 104.875 48.2345 104.854 48.2506C104.738 48.3067 104.614 48.3461 104.485 48.3676L103.762 48.5079C103.762 48.6295 103.762 48.7605 103.762 48.9008H104.079L105.182 48.8541C105.427 48.8413 105.674 48.8413 105.92 48.8541C106.227 48.8541 106.575 48.8541 106.96 48.9008C107.345 48.9476 107.693 48.9429 108 48.9429V48.8166C107.997 48.7195 107.986 48.6226 107.969 48.5266C107.784 48.462 107.593 48.4164 107.397 48.391C107.263 48.3829 107.133 48.3425 107.022 48.274C106.937 48.1937 106.871 48.098 106.83 47.9933C106.696 47.7496 106.576 47.4998 106.471 47.2449C106.32 46.8753 106.201 46.604 106.118 46.4216C105.972 46.1175 105.795 45.7246 105.598 45.2475C105.4 44.7703 105.166 44.2698 104.906 43.7599L103.783 41.3602L103.726 41.2573H103.024L101.464 44.8779L100.137 47.9138C100.072 48.038 99.9823 48.1506 99.8723 48.2459C99.6816 48.3278 99.4782 48.383 99.2691 48.4097C99.1217 48.4298 98.9759 48.4579 98.8323 48.4939L98.8479 48.9102ZM91.5678 41.0421C91.5366 41.1123 91.4898 41.2666 91.417 41.5099C91.2692 42.0241 91.0833 42.5289 90.8606 43.0208C90.9761 43.1133 91.1057 43.1905 91.2454 43.25C91.2974 43.25 91.3754 43.1845 91.4794 43.0629C91.7116 42.7595 91.9939 42.4898 92.3166 42.263C92.5784 42.1801 92.856 42.1451 93.133 42.1601C93.8766 42.1601 94.3082 42.1601 94.4434 42.1882C94.4764 42.1886 94.508 42.2003 94.5318 42.2209C94.5566 42.2428 94.5746 42.2703 94.5838 42.3004C94.6195 42.6644 94.6316 43.0298 94.6202 43.395V45.5749C94.6202 46.59 94.6202 47.3384 94.5786 47.8015C94.5712 47.9015 94.5448 47.9996 94.5006 48.0916C94.206 48.2171 93.8975 48.3143 93.5802 48.3816C93.3811 48.4101 93.1982 48.4973 93.0602 48.6295V48.6763V48.812C93.0566 48.8556 93.0566 48.8993 93.0602 48.9429H93.5334C94.1678 48.8962 94.5474 48.8774 94.6774 48.8774C95.4938 48.8774 96.0554 48.8774 96.3674 48.9149C96.6795 48.9523 97.0591 48.957 97.5011 48.957H97.7403C97.754 48.9063 97.7627 48.8546 97.7663 48.8026C97.7663 48.7745 97.7663 48.6903 97.7299 48.55C97.6158 48.5128 97.4995 48.4816 97.3815 48.4564C97.0955 48.3956 96.9343 48.3676 96.9031 48.3629C96.7723 48.3497 96.6434 48.3246 96.5182 48.288C96.458 48.0917 96.4316 47.8882 96.4402 47.6846V46.8753V45.0042V43.3108V42.5296C96.4449 42.406 96.4571 42.2826 96.4767 42.1601C96.6268 42.1433 96.7778 42.1339 96.9291 42.132C97.3904 42.1194 97.8523 42.1304 98.3123 42.1648C98.3818 42.1787 98.4441 42.2133 98.4891 42.263C98.5913 42.4101 98.675 42.567 98.7387 42.7308C98.8435 42.9585 98.9669 43.179 99.1079 43.3904C99.2677 43.3718 99.4246 43.3373 99.5759 43.2875C99.5856 43.2019 99.5856 43.1157 99.5759 43.0302V42.7355V42.2116C99.5759 41.6689 99.5759 41.276 99.5759 41H99.0975L99.0299 41.145C98.9954 41.2532 98.9331 41.3526 98.8479 41.435L98.4683 41.4818H94.2146H94.0794H93.1902C92.6702 41.4818 92.3634 41.4818 92.3062 41.4818C92.2002 41.366 92.1078 41.2406 92.0306 41.1076L91.963 41.0187L91.5678 41.0421ZM89.5762 41.5099C88.969 41.3068 88.3304 41.19 87.6833 41.1637C86.8891 41.1106 86.1037 41.3427 85.4993 41.8093C85.2561 42.0128 85.0629 42.2599 84.9321 42.5346C84.8014 42.8093 84.736 43.1056 84.7401 43.4044C84.752 43.7299 84.8425 44.0491 85.0053 44.34C85.1681 44.6568 85.4188 44.9307 85.7333 45.1352C86.2509 45.4225 86.8064 45.6504 87.3869 45.8135C87.9058 45.9453 88.3988 46.1488 88.8481 46.4169C88.9822 46.5128 89.0919 46.6333 89.17 46.7705C89.248 46.9077 89.2925 47.0582 89.3006 47.2121C89.3019 47.4517 89.212 47.6845 89.0457 47.8717C88.8738 48.0773 88.6361 48.2307 88.3645 48.3114C88.1174 48.398 87.8549 48.444 87.5897 48.4471C87.3419 48.4498 87.0955 48.4134 86.8617 48.3395C86.6528 48.2723 86.4577 48.1743 86.2845 48.0495C86.1104 47.9157 85.9612 47.7578 85.8425 47.5817C85.6926 47.3268 85.5589 47.0644 85.4421 46.7958H84.8389V47.0157C84.8389 47.1233 84.8389 47.3057 84.8389 47.5536C84.8649 48.0495 84.8753 48.3114 84.8753 48.3535V48.419C84.8814 48.4607 84.9014 48.4999 84.9325 48.5313C85.0568 48.6003 85.1944 48.6479 85.3381 48.6716L86.1181 48.8821C86.4736 48.9523 86.8358 48.9914 87.1997 48.9991C87.5777 49.0064 87.9552 48.9703 88.3229 48.8915C88.6227 48.816 88.9083 48.7009 89.1706 48.55C89.3858 48.4305 89.5878 48.2926 89.7738 48.1384C89.9455 47.9874 90.0802 47.8057 90.169 47.6051C90.3172 47.2621 90.393 46.8972 90.3926 46.5292C90.4015 46.2448 90.354 45.9612 90.2522 45.6919C90.1294 45.432 89.953 45.1955 89.7322 44.9949C89.4842 44.778 89.1932 44.605 88.8741 44.485C88.5631 44.3581 88.2414 44.2533 87.9121 44.1716C87.342 44.0643 86.8077 43.8384 86.3521 43.512C86.2418 43.4203 86.1527 43.3099 86.0903 43.187C86.0278 43.0641 85.993 42.9313 85.9881 42.7963C85.9833 42.6553 86.0141 42.5152 86.078 42.3864C86.1419 42.2576 86.2374 42.1434 86.3573 42.0525C86.6386 41.8399 86.9992 41.7312 87.3661 41.7485C87.5851 41.7488 87.8015 41.7907 88.0013 41.8713C88.2011 41.9519 88.3798 42.0694 88.5257 42.2162C88.7914 42.5275 88.9842 42.8839 89.0925 43.2641H89.1757L89.6386 43.2921H89.7062C89.7127 43.2174 89.7127 43.1423 89.7062 43.0676C89.7011 42.7548 89.6768 42.4424 89.6334 42.132C89.6122 41.9298 89.5722 41.7295 89.5137 41.5333M79.3528 48.9055L79.904 48.8494C80.3408 48.812 80.6736 48.7886 80.9024 48.7886H82.0465C82.5665 48.84 82.8473 48.8634 82.9097 48.8774H83.0761H83.3153H83.4453C83.4453 48.7886 83.4453 48.7137 83.4453 48.6763C83.4453 48.6389 83.4453 48.5032 83.4453 48.3863L83.0501 48.3395C82.8317 48.3395 82.5977 48.2787 82.3325 48.2319C82.311 48.1908 82.2986 48.1463 82.2961 48.1009V47.8811V46.7116L82.3273 45.9304V44.3914C82.3273 44.0406 82.3273 43.5307 82.3273 42.8805C82.3273 42.7729 82.3273 42.6326 82.3273 42.4735C82.3215 42.3167 82.3354 42.1598 82.3689 42.0057C82.5476 41.9467 82.7299 41.8967 82.9149 41.856C83.114 41.8153 83.3102 41.7637 83.5025 41.7017C83.5086 41.6176 83.5086 41.5332 83.5025 41.4491C83.5025 41.3976 83.5025 41.3274 83.5025 41.2666L82.9097 41.2947C82.3481 41.3274 81.9373 41.3415 81.6876 41.3415H81.256L79.4048 41.2807V41.7859C79.4793 41.7907 79.554 41.7907 79.6284 41.7859C79.923 41.7831 80.2156 41.8291 80.4916 41.9215C80.4916 42.0057 80.528 42.0712 80.5332 42.1086V42.3612L80.5696 43.0161V43.3389L80.58 44.1716C80.58 44.1716 80.58 44.5879 80.528 45.3597V45.6731V47.0063V47.6893C80.5362 47.8635 80.4969 48.037 80.4136 48.1945C80.2128 48.28 80.0017 48.3443 79.7844 48.3863L79.3632 48.4845L79.3528 48.9055ZM73.0243 44.7703V44.6066C73.0243 44.3213 73.0243 44.092 73.0243 43.919V43.2781V42.8103V42.0244V41.9122C73.1965 41.8896 73.3703 41.8786 73.5443 41.8794C73.8526 41.8692 74.1608 41.8991 74.4595 41.9683C74.6959 42.0359 74.9102 42.1548 75.0836 42.3145C75.2173 42.448 75.3136 42.6084 75.3644 42.7822C75.4427 43.0046 75.4813 43.2367 75.4788 43.4699C75.4843 43.6466 75.4461 43.8222 75.367 43.984C75.2879 44.1458 75.1697 44.2898 75.0212 44.4055C74.562 44.6818 74.0111 44.8073 73.4611 44.761H73.0087M70.0863 48.536C70.0825 48.5952 70.0825 48.6545 70.0863 48.7137C70.0863 48.7418 70.0863 48.8026 70.0863 48.9008H70.3671C70.6175 48.9017 70.8676 48.8876 71.1159 48.8587L72.0051 48.8026H72.2599C72.4367 48.8026 72.9827 48.8353 73.9135 48.9102H74.1735H74.3399C74.3508 48.7669 74.3508 48.6231 74.3399 48.4798C74.0565 48.3824 73.7642 48.3073 73.4663 48.2553C73.3012 48.2292 73.1416 48.1803 72.9931 48.1103L73.0347 47.011L73.0035 45.7152C72.9947 45.5828 72.9947 45.45 73.0035 45.3176H73.4403C73.6723 45.2985 73.9055 45.3408 74.1111 45.4392C74.299 45.6315 74.4517 45.8494 74.5635 46.0848C75.0264 46.9081 75.3488 47.4881 75.5464 47.8904C75.614 48.0308 75.744 48.2506 75.926 48.5406L76.1444 48.9242L76.4252 48.8962L76.94 48.8494H77.5848C77.7587 48.8474 77.9324 48.8568 78.1048 48.8774H78.37L78.708 48.9149H79.0148C79.0148 48.8634 79.0148 48.812 79.0148 48.7839C79.015 48.7227 79.0008 48.6621 78.9732 48.6061C78.8334 48.5248 78.6833 48.4588 78.526 48.4097C78.3492 48.36 78.1837 48.2824 78.0372 48.1805C77.8376 47.9648 77.6634 47.7313 77.5172 47.4835L76.4772 45.9678C76.3628 45.8041 76.2172 45.6077 76.0352 45.3738C75.9591 45.2828 75.8896 45.1874 75.8272 45.0884C76.3328 44.9716 76.7876 44.7206 77.1324 44.368C77.4028 44.0638 77.5512 43.6863 77.5536 43.2968C77.5491 43.0247 77.4761 42.7571 77.3401 42.5141C77.2041 42.271 77.0086 42.0588 76.7684 41.8935C76.1698 41.464 75.4165 41.2476 74.652 41.2853C74.1187 41.2833 73.5857 41.3082 73.0555 41.3602L72.2443 41.3883H71.9011L71.3811 41.3508H70.7831C70.5844 41.3511 70.386 41.3668 70.1903 41.3976L70.1643 41.4631V41.8139C70.2787 41.8139 70.5127 41.8514 70.8559 41.8701L71.2459 41.9402C71.2459 42.1601 71.2771 42.684 71.2771 43.4886C71.2771 43.8628 71.2771 44.2511 71.2771 44.6814V44.9949V45.5375V46.2345V47.5349C71.2917 47.7218 71.2917 47.9094 71.2771 48.0963C71.2702 48.1529 71.2598 48.2091 71.2459 48.2647C71.05 48.3258 70.848 48.3696 70.6427 48.3956C70.4628 48.4054 70.2865 48.4451 70.1227 48.5126M63.7474 45.5936L64.6834 43.3342C64.8134 43.5822 64.9746 43.9283 65.2034 44.3867C65.4322 44.8452 65.5778 45.2521 65.7234 45.603H65.4998H63.7162M60.6638 48.8774H60.8198C61.1148 48.8868 61.4102 48.8774 61.7038 48.8494L61.9742 48.8026C63.0142 48.8681 63.6226 48.9008 63.893 48.9008C63.8984 48.8557 63.8984 48.8103 63.893 48.7652C63.893 48.7137 63.893 48.6155 63.893 48.4752C63.6226 48.4424 63.4666 48.419 63.425 48.4097C63.2244 48.4034 63.029 48.3502 62.8582 48.2553C62.8262 48.2269 62.8016 48.1924 62.7863 48.1544C62.771 48.1163 62.7654 48.0757 62.7698 48.0354C62.7895 47.8936 62.8316 47.755 62.8946 47.6238C63.1806 46.8894 63.373 46.4356 63.4614 46.2485H65.9366L66.4566 47.3899L66.7166 47.9653C66.7372 48.0163 66.7478 48.0701 66.7478 48.1243C66.7477 48.1488 66.7422 48.173 66.7314 48.1955C66.7207 48.218 66.7051 48.2383 66.6854 48.2553C66.5674 48.3101 66.4414 48.3494 66.311 48.3722L65.5882 48.5126C65.5773 48.6434 65.5773 48.7747 65.5882 48.9055H65.9106L67.0078 48.8587C67.252 48.8461 67.4969 48.8461 67.7411 48.8587C68.0531 48.8587 68.4015 48.8587 68.7811 48.9055C69.1607 48.9523 69.5143 48.9476 69.8211 48.9476V48.8213C69.818 48.7239 69.8059 48.6269 69.7847 48.5313C69.6019 48.4672 69.4118 48.4217 69.2179 48.3956C69.0838 48.3869 68.9547 48.3466 68.8435 48.2787C68.7581 48.1983 68.6926 48.1027 68.6511 47.998C68.5149 47.7552 68.3951 47.5053 68.2923 47.2496C68.1363 46.88 68.0219 46.6087 67.9387 46.4263C67.7879 46.1222 67.6163 45.7293 67.4187 45.2521C67.2211 44.775 66.9818 44.2745 66.727 43.7646L65.6038 41.3649L65.5466 41.262H64.8394L63.2794 44.8826L61.9898 47.9138C61.9264 48.0391 61.8363 48.1519 61.7246 48.2459C61.5343 48.3287 61.3307 48.3839 61.1214 48.4097C60.9758 48.4302 60.8317 48.4583 60.6898 48.4939L60.6638 48.8774ZM49 48.8774V48.4798C49.3717 48.4733 49.7332 48.3692 50.04 48.1805C50.1781 47.9584 50.2548 47.7097 50.2636 47.4554L50.3416 45.3784L50.4404 43.2687C50.4404 43.1378 50.4404 43.0629 50.4404 43.0302C50.4731 42.7152 50.4377 42.3975 50.3364 42.0946C50.0867 41.9503 49.8005 41.865 49.5044 41.8467L49.2184 41.7859C49.2139 41.7064 49.2139 41.6268 49.2184 41.5473V41.3649C49.3744 41.3649 49.5668 41.3649 49.78 41.3649L51.678 41.4257H51.8548H52.1564C52.241 41.5224 52.3158 41.6258 52.38 41.7344C52.536 42.0244 52.7493 42.4361 53.0093 42.9834L53.0821 43.1424L54.1117 45.1071L54.2261 45.313C54.2885 45.4486 54.3561 45.5843 54.4289 45.7059L54.6473 46.1269C54.7253 46.2766 54.7929 46.4122 54.8501 46.5292C54.917 46.4294 54.9778 46.3263 55.0321 46.2204C55.2089 45.8649 55.3701 45.5375 55.5521 45.2334C55.8381 44.7048 56.2281 43.9002 56.7169 42.8103C56.7897 42.6326 56.9197 42.3706 57.1017 42.0244C57.2837 41.6783 57.3773 41.4818 57.3929 41.4631C57.4637 41.4261 57.5454 41.4097 57.6269 41.4163H57.8245C58.0533 41.4163 58.3445 41.3883 58.6357 41.3836C59.0881 41.3836 59.4521 41.3836 59.7225 41.3508L60.1906 41.3181H60.3466C60.3466 41.3695 60.3466 41.421 60.3466 41.4444V41.6222C60.3466 41.6596 60.3466 41.711 60.3466 41.7812C60.0033 41.8146 59.6681 41.8967 59.3533 42.0244C59.1765 42.104 59.0881 42.1975 59.0881 42.3145V42.4033L59.1973 44.1856C59.1973 44.3493 59.2441 45.1633 59.3013 46.6227C59.3013 46.9455 59.3481 47.3572 59.3897 47.8624C59.3897 47.9232 59.3897 47.9746 59.3897 48.0074C59.3897 48.0401 59.3897 48.1571 59.4573 48.1851C59.5249 48.2132 59.889 48.3255 60.6222 48.5266C60.6222 48.5921 60.6222 48.6295 60.6222 48.6623C60.6222 48.695 60.6222 48.8307 60.6222 48.9055C60.5078 48.9055 60.2114 48.9055 59.7381 48.8447C59.298 48.7985 58.8552 48.7766 58.4121 48.7792C57.7881 48.7792 57.1849 48.7792 56.5869 48.8447H56.3633V48.4424C56.59 48.3661 56.8255 48.3128 57.0653 48.2834C57.1396 48.2817 57.2128 48.2668 57.2806 48.2395C57.3485 48.2122 57.4096 48.173 57.4605 48.1243C57.5421 47.9273 57.5723 47.716 57.5489 47.5068C57.5489 47.3805 57.5489 47.2683 57.5489 47.17C57.5489 46.7584 57.5177 46.1971 57.5073 45.472L57.4033 43.4138C57.4033 43.1206 57.3877 42.9195 57.3565 42.8103L55.7445 46.1409C55.7029 46.2158 55.6457 46.3327 55.5677 46.473C55.4897 46.6134 55.4013 46.8005 55.3701 46.866C55.0321 47.5864 54.8033 48.1337 54.6733 48.5173C54.6369 48.6108 54.5849 48.7418 54.5173 48.9008H53.9973L53.6489 48.0121C53.5449 47.7782 53.3681 47.4273 53.1289 46.9502C52.9781 46.6695 52.8637 46.4497 52.7805 46.2813C52.7502 46.23 52.7241 46.1769 52.7025 46.1222L52.6193 45.9772C52.6193 45.9772 52.6193 45.9351 52.6193 45.9211L51.6572 44.0499L51.0696 42.9132L51.0124 45.6685L50.9396 47.4881C50.9177 47.7112 50.982 47.9343 51.1216 48.1196C51.3496 48.2898 51.6245 48.4013 51.9172 48.4424L52.2292 48.5126V48.9429C51.9579 48.9369 51.6872 48.9182 51.418 48.8868C51.1372 48.8868 50.7524 48.8447 50.2792 48.8447L49 48.9008" fill="#4E5051"/>
<line y1="32.5" x2="107" y2="32.5" stroke="#4E5051"/>
</svg>
