<svg width="595" height="681" viewBox="0 0 595 681" fill="none" xmlns="http://www.w3.org/2000/svg">
<g clip-path="url(#clip0_26_706)">
<path d="M47.9134 265.181C72.1005 269.511 90.8018 244.195 82.5345 220.398C79.3536 211.187 74.1904 203.158 67.7825 198.644C59.1772 192.58 53.2456 170.304 37.6945 188.588C22.1434 206.873 46.5611 210.082 39.4617 232.588C32.5159 254.573 36.0964 263.047 47.9134 265.181Z" fill="#3D276B"/>
<path d="M69.0272 167.341C73.7601 175.662 78.3701 184.228 83.5026 192.365C91.4472 205.061 109.903 205.737 117.909 193.102C118.538 192.141 119.054 191.111 119.445 190.032C120.471 186.969 122.406 184.291 124.993 182.355C129.277 179.052 132.223 174.315 133.291 169.014C138.577 144.005 153.144 130.495 149.672 105.931C148.65 105.376 147.678 104.734 146.767 104.012C143.571 101.402 140.513 98.7925 137.547 96.029C72.6076 71.3578 56.2575 144.558 69.0272 167.341Z" fill="url(#paint0_linear_26_706)"/>
<path d="M490.459 374.598C436.983 550.075 524.511 577.648 252.659 611.914C122.411 628.341 -52.2467 487.437 14.8596 374.598C137.071 169.137 124.47 234.17 252.659 137.281C329.139 79.4638 553.432 167.986 490.459 374.598Z" fill="url(#paint1_linear_26_706)"/>
<path d="M223.985 342.358C275.986 309.35 204.285 294.074 426.964 268.037C662.305 240.571 514.784 448.289 438.489 489.602C373.949 524.575 399.012 656.789 235.51 563.908C80.8595 476.077 169.233 377.131 223.985 342.358Z" fill="#6D5DA4" stroke="#6D5DA4" stroke-width="0.75" stroke-miterlimit="10"/>
<path d="M172.322 684.562L255.748 654.272C257.578 653.574 259.064 652.191 259.89 650.417C260.716 648.642 260.818 646.616 260.173 644.768L174.873 395.63C174.582 394.716 174.11 393.868 173.485 393.139C172.86 392.409 172.096 391.812 171.236 391.383C170.377 390.953 169.44 390.701 168.481 390.639C167.522 390.578 166.56 390.709 165.653 391.025L82.2118 421.376C80.3821 422.074 78.8973 423.457 78.0736 425.232C77.2498 427.007 77.1522 429.034 77.8015 430.879L163.102 680.017C163.398 680.928 163.873 681.77 164.5 682.494C165.127 683.218 165.893 683.809 166.753 684.233C167.612 684.656 168.547 684.904 169.504 684.96C170.461 685.017 171.419 684.881 172.322 684.562V684.562Z" fill="#520C25"/>
<path d="M382.831 674.199L299.359 644.047C297.524 643.358 296.033 641.98 295.203 640.207C294.373 638.434 294.271 636.407 294.918 634.559L375.962 396.597C376.251 395.681 376.722 394.833 377.346 394.102C377.97 393.372 378.735 392.774 379.595 392.344C380.455 391.914 381.393 391.662 382.353 391.601C383.312 391.541 384.274 391.674 385.182 391.992L468.684 422.19C470.517 422.885 472.006 424.266 472.836 426.041C473.665 427.815 473.769 429.843 473.125 431.693L392.081 669.655C391.784 670.567 391.306 671.412 390.677 672.137C390.047 672.862 389.279 673.454 388.416 673.878C387.554 674.302 386.615 674.548 385.656 674.603C384.696 674.658 383.736 674.521 382.831 674.199V674.199Z" fill="#520C25"/>
<path d="M200.136 431.847H199.982V430.05C200.028 430.664 200.059 431.279 200.136 431.847Z" fill="#520C25"/>
<path d="M269.624 427.87V431.847H269.378C269.546 430.528 269.628 429.2 269.624 427.87V427.87Z" fill="#520C25"/>
<path d="M311.099 135.27C294.487 29.3384 229.117 -3.94555 177.808 49.6035C111.009 119.334 92.6459 151.758 132.154 204.432C173.06 258.902 216.04 309.197 265.444 290.098C314.848 271 321.948 204.355 311.099 135.27Z" fill="url(#paint2_linear_26_706)"/>
<path d="M313.481 288.195V319.145L302.586 329.492H313.481V406.484C313.482 407.813 313.405 409.141 313.25 410.461C312.415 417.989 308.855 424.952 303.241 430.042C297.626 435.131 290.343 437.995 282.763 438.095H274.48C266.899 437.995 259.617 435.131 254.002 430.042C248.387 424.952 244.827 417.989 243.992 410.461C243.916 409.893 243.885 409.279 243.839 408.664V288.195H313.481Z" fill="#520C25"/>
<path d="M352.435 204.923C358.582 221.811 339.235 244.978 339.235 244.978C339.235 244.978 337.376 245.607 336.469 245.807C345.689 298.926 292.843 358.831 293.366 360.842C293.888 362.853 213.213 349.005 186.337 301.536C185.476 302.027 183.678 302.795 183.678 302.795C183.678 302.795 154.312 298.496 148.15 281.578C141.988 264.659 147.92 246.805 161.366 241.661C162.523 241.228 163.716 240.894 164.931 240.664C156.402 188.343 173.091 141.226 208.326 127.609C243.977 113.792 287.342 138.724 314.357 185.011C315.201 184.533 316.079 184.117 316.984 183.768C330.384 178.517 346.273 188.02 352.435 204.923Z" fill="#89143B"/>
<path d="M352.512 204.893C356.062 215.639 350.975 226.846 345.52 236.012C343.627 239.136 341.527 242.132 339.235 244.978C338.328 245.3 337.405 245.577 336.469 245.807C342.493 282.775 322.639 318.608 302.555 348.207C301.095 350.203 297.146 355.883 295.701 357.864C294.985 358.8 294.343 359.791 293.78 360.827C293.78 360.827 293.78 360.673 293.78 360.827C293.789 360.929 293.766 361.031 293.713 361.119C293.661 361.207 293.582 361.277 293.489 361.318C293.28 361.407 293.054 361.449 292.828 361.441C287.708 361.026 282.637 360.147 277.676 358.815C243.316 349.926 204.869 333.515 186.352 301.551C185.491 301.996 184.569 302.442 183.678 302.825C172.368 300.707 160.49 297.022 152.33 288.517C142.588 277.218 143.356 255.816 154.512 245.669C157.414 242.993 161.007 241.179 164.885 240.433L164.746 240.648C159.798 208.884 162.487 173.282 182.587 146.999C189.202 138.253 198.143 131.54 208.391 127.623C218.639 123.706 229.782 122.744 240.55 124.845C273.128 131.401 298.114 157.285 314.449 184.935H314.187C317.813 182.941 321.938 182.035 326.066 182.325C338.59 183.323 348.455 193.701 352.512 205.046V204.893ZM352.343 204.893C346.765 189.233 330.276 176.905 314.126 184.935C297.868 157.3 272.989 131.478 240.504 124.876C204.715 117.937 177.593 143.007 168.281 175.907C162.011 196.833 161.75 219.201 165.207 240.648C161.326 241.356 157.722 243.138 154.804 245.791C143.679 255.878 142.91 277.003 152.499 288.287C160.613 296.792 172.476 300.569 183.74 302.687C184.615 302.303 185.553 301.873 186.413 301.428C205.284 332.931 243.639 349.282 277.922 357.956C282.916 359.03 288.049 360.443 293.166 360.473C293.115 360.506 293.074 360.552 293.047 360.606C293.02 360.66 293.008 360.72 293.012 360.78C293.012 360.903 293.012 360.688 293.012 360.658C293.234 360.027 293.556 359.437 293.965 358.908L295.102 357.28C296.5 355.315 300.542 349.727 301.986 347.67C322.209 318.27 341.94 282.56 336.531 245.699C337.468 245.484 338.39 245.162 339.297 244.87C341.57 242.01 343.654 239.005 345.536 235.874C350.899 226.662 355.985 215.501 352.404 204.847L352.343 204.893Z" fill="#520C25"/>
<path d="M245.345 274.899C248.295 274.777 249.786 276.619 251.66 278.338C253.409 280.022 254.924 281.932 256.163 284.019C253.914 283.157 251.79 282.001 249.847 280.58C247.819 279.044 245.744 277.893 245.345 274.961V274.899Z" fill="#520C25"/>
<path d="M190.317 246.805C197.124 230.378 211.292 232.726 223.078 242.521C220.374 241.124 217.439 238.913 214.442 237.716C203.686 232.696 195.587 236.595 190.317 246.805Z" fill="#520C25"/>
<path d="M228.81 245.346C231.315 265.12 209.74 274.899 194.158 264.705C192.162 263.443 190.48 261.741 189.241 259.731C198.276 264.89 210.539 270.186 219.375 262.264C224.323 257.659 225.844 251.518 228.81 245.377V245.346Z" fill="#520C25"/>
<path d="M178.115 234.185C181.373 218.833 191.761 209.452 207.85 213.06C212.283 214.055 216.563 215.64 220.574 217.773C218.422 217.082 216.332 216.238 214.15 215.716C195.864 210.174 184.308 216.238 178.115 234.139V234.185Z" fill="#6D5DA4"/>
<path d="M156.095 260.315C165.146 256.952 176.21 278.737 179.237 285.493C172.783 277.724 167.297 269.219 159.691 262.633C158.708 261.714 157.499 261.073 156.187 260.775L156.095 260.315Z" fill="#520C25"/>
<path d="M284.499 291.234C284.499 291.234 273.619 285.769 264 289.5C254.38 293.23 251.706 303.9 249.678 304.698C247.65 305.497 260.558 310.164 270.177 306.448C279.797 302.733 284.499 291.234 284.499 291.234Z" fill="#6D5DA4" stroke="#6D5DA4" stroke-width="0.75" stroke-miterlimit="10"/>
<path d="M243.823 304.867C259.928 302.349 275.94 297.513 289.063 287.534C277.2 299.217 260.22 304.529 243.823 304.867Z" fill="#520C25"/>
<path d="M169.741 271.89C166.498 273.303 163.041 275.329 163.594 279.244C163.743 280.495 163.99 281.732 164.331 282.944C163.21 280.595 161.873 278.031 162.795 275.268C163.948 272.721 165.844 270.58 168.235 269.127L169.771 271.798L169.741 271.89Z" fill="#520C25"/>
<path d="M164.931 240.602C153.006 193.332 161.857 145.571 208.326 127.547L164.931 240.602Z" fill="#D483B5"/>
<path d="M164.731 240.664C150.148 204.125 153.974 153.785 192.791 134.103C197.765 131.451 202.951 129.217 208.296 127.425C198.645 132.199 189.072 139.016 182.587 147.582C169.064 164.608 163.701 185.963 163.225 207.456C163.093 218.495 163.73 229.529 165.131 240.479L164.731 240.587V240.664Z" fill="#E51F46"/>
<path d="M202.84 129.697C247.004 114.529 283.592 135.746 314.479 184.566L202.84 129.697Z" fill="#E51F46"/>
<path d="M202.84 129.651C232.836 117.369 259.697 121.207 284.038 143.222C296.735 154.936 307.077 168.963 314.51 184.551C307.242 175.938 300.081 167.049 292.198 159.219C268.917 135.101 236.34 119.948 202.84 129.651Z" fill="#D483B5"/>
<path d="M84.7012 120.194C92.5229 117.799 73.3145 115.005 68.2435 119.748C63.1725 124.492 71.3937 132.307 66.3227 137.342C61.2517 142.378 77.7094 142.531 82.7804 137.787C87.8514 133.044 76.8335 122.589 84.7012 120.194Z" fill="#E51F46"/>
<path d="M343.984 366.077H342.754C335.122 365.903 327.485 365.75 319.842 365.616C305.106 370.007 286.819 379.633 280.703 388.184C274.972 377.683 248.572 368.349 229.655 365.939C223.294 366.123 216.901 366.507 210.724 367.305C148.289 388.891 118.324 443.361 118.324 514.043C118.324 589.96 234.742 653.642 269.163 670.806C272.1 672.283 275.341 673.052 278.629 673.052C281.917 673.052 285.158 672.283 288.095 670.806C322.516 653.642 438.95 589.96 438.95 514.043C438.965 443.99 405.235 388.092 343.984 366.077Z" fill="#E51F46"/>
<path d="M232.836 501.04L231.407 502.575L232.406 500.809C232.568 500.845 232.717 500.924 232.836 501.04Z" fill="#89143B" stroke="#520C25" stroke-width="0.54" stroke-miterlimit="10"/>
<path d="M442.561 469.552C441.68 468.628 440.62 467.893 439.446 467.39C438.272 466.888 437.008 466.628 435.73 466.628C434.453 466.628 433.189 466.888 432.015 467.39C430.841 467.893 429.781 468.628 428.9 469.552L411.059 487.883L409.63 489.418L410.613 487.652L428.731 455.213C430.016 452.931 430.365 450.241 429.706 447.707C429.047 445.174 427.431 442.994 425.196 441.626C424.096 440.969 422.873 440.541 421.603 440.368C420.332 440.196 419.04 440.282 417.803 440.622C416.567 440.962 415.412 441.549 414.409 442.346C413.406 443.144 412.575 444.137 411.966 445.264L393.387 478.426L392.88 478.18L414.901 430.987C416.016 428.613 416.166 425.9 415.321 423.418C414.476 420.936 412.7 418.878 410.368 417.676C409.219 417.115 407.97 416.79 406.693 416.718C405.417 416.647 404.139 416.831 402.935 417.26C401.731 417.689 400.625 418.354 399.682 419.217C398.739 420.079 397.978 421.121 397.444 422.282L375.577 469.076L373.395 467.894L390.406 431.493C391.523 429.115 391.674 426.398 390.829 423.911C389.984 421.423 388.208 419.36 385.873 418.152C384.726 417.587 383.478 417.258 382.201 417.185C380.925 417.111 379.647 417.295 378.443 417.724C377.239 418.154 376.134 418.821 375.193 419.686C374.252 420.55 373.494 421.595 372.965 422.758L354.003 463.319C353.49 464.433 353.178 465.628 353.081 466.85C352.468 467.585 351.952 468.395 351.544 469.26L347.287 478.057H341.755V476.522L350.514 449.824C351.556 446.704 351.336 443.3 349.9 440.34C348.465 437.38 345.928 435.098 342.831 433.98C340.067 433.052 337.058 433.163 334.37 434.294C331.682 435.425 329.499 437.497 328.233 440.121C329.124 451.958 324.529 462.643 317.215 471.118C312.405 481.22 303.83 488.405 297.545 496.894V514.289C297.803 515.835 297.901 517.404 297.837 518.971C297.666 523.6 296.875 528.185 295.486 532.604C292.152 583.881 240.627 613.465 193.59 633.316C189.302 645.49 183.448 664.22 181.527 680.432C188.534 678.283 195.541 676.118 202.502 673.815C231.978 664.341 259.897 650.581 285.359 632.978C331.306 600.891 376.73 561.374 407.141 513.137C408.531 510.77 410.417 508.73 412.668 507.156C414.92 505.582 417.484 504.512 420.187 504.018C425.642 499.596 431.958 490.539 438.289 485.595C440.087 484.198 442.131 482.755 444.205 481.296C445.191 479.412 445.563 477.267 445.268 475.161C444.973 473.055 444.027 471.094 442.561 469.552Z" fill="#89143B"/>
<path d="M152.622 480.606L154.051 482.141L153.052 480.375C152.892 480.416 152.745 480.495 152.622 480.606Z" fill="#89143B" stroke="#520C25" stroke-width="0.54" stroke-miterlimit="10"/>
<path d="M121.136 462.275C122.018 461.351 123.079 460.615 124.255 460.112C125.43 459.61 126.695 459.35 127.974 459.35C129.252 459.35 130.518 459.61 131.693 460.112C132.868 460.615 133.929 461.351 134.812 462.275L152.622 480.606L154.051 482.141L153.052 480.375L134.889 447.951C133.607 445.666 133.259 442.975 133.918 440.44C134.577 437.905 136.191 435.722 138.423 434.349C139.526 433.692 140.75 433.265 142.023 433.093C143.295 432.921 144.589 433.009 145.827 433.35C147.065 433.692 148.22 434.28 149.225 435.08C150.229 435.879 151.06 436.874 151.669 438.003L170.263 471.149L170.785 470.903L148.765 423.725C147.656 421.345 147.518 418.627 148.378 416.146C149.238 413.665 151.03 411.615 153.375 410.43C154.522 409.865 155.77 409.536 157.047 409.463C158.323 409.389 159.601 409.573 160.805 410.002C162.009 410.432 163.114 411.099 164.055 411.963C164.996 412.828 165.754 413.873 166.283 415.036L188.15 461.814L190.332 460.632L173.321 424.232C172.214 421.844 172.076 419.121 172.936 416.633C173.795 414.146 175.585 412.088 177.931 410.891C179.079 410.33 180.329 410.004 181.605 409.932C182.882 409.861 184.159 410.045 185.363 410.474C186.568 410.903 187.674 411.569 188.617 412.431C189.56 413.294 190.32 414.336 190.854 415.496L209.817 456.057C210.324 457.172 210.631 458.367 210.723 459.588C211.335 460.324 211.852 461.134 212.26 461.999L216.547 470.673H222.079V469.137L213.244 442.332C212.206 439.212 212.428 435.81 213.863 432.851C215.298 429.892 217.833 427.609 220.927 426.489C223.691 425.56 226.7 425.671 229.388 426.802C232.076 427.933 234.258 430.005 235.525 432.63C234.634 444.466 239.213 455.167 246.543 463.626C251.353 473.728 259.928 480.913 266.197 489.403V506.797C265.946 508.344 265.853 509.913 265.921 511.479C266.08 516.108 266.865 520.694 268.256 525.112C271.606 576.389 323.115 605.973 370.153 625.824C374.456 638.013 380.31 656.728 382.216 672.94C375.209 670.806 368.217 668.626 361.256 666.323C331.613 656.513 304.261 643.617 278.46 625.593C232.498 593.507 187.074 553.99 156.663 505.753C155.273 503.388 153.39 501.349 151.142 499.776C148.893 498.202 146.332 497.131 143.632 496.634C138.162 492.227 131.846 483.154 125.53 478.211C123.733 476.798 121.689 475.355 119.614 473.897C118.645 472.037 118.271 469.925 118.543 467.846C118.815 465.768 119.72 463.823 121.136 462.275Z" fill="#89143B"/>
<path d="M262.279 218.863C269.086 202.421 283.27 204.785 295.041 214.565C292.351 213.168 289.416 210.972 286.405 209.759C275.648 204.739 267.565 208.639 262.279 218.863Z" fill="#520C25"/>
<path d="M304.261 218.863C306.781 238.637 285.206 248.417 269.624 238.238C267.627 236.969 265.945 235.263 264.707 233.248C273.742 238.407 285.99 243.703 294.825 235.782C299.789 231.176 301.31 225.035 304.261 218.894V218.863Z" fill="#520C25"/>
<path d="M252.536 207.149C255.809 191.797 266.182 182.432 282.286 186.04C286.718 187.031 290.998 188.611 295.01 190.738C292.858 190.047 290.769 189.202 288.587 188.681C270.285 183.138 258.744 189.202 252.536 207.103V207.149Z" fill="#6D5DA4"/>
</g>
<defs>
<linearGradient id="paint0_linear_26_706" x1="101.451" y1="137.219" x2="161.028" y2="187.139" gradientUnits="userSpaceOnUse">
<stop stop-color="#3D276B"/>
<stop offset="0.05" stop-color="#483378"/>
<stop offset="0.16" stop-color="#58468B"/>
<stop offset="0.28" stop-color="#645399"/>
<stop offset="0.44" stop-color="#6B5BA2"/>
<stop offset="0.7" stop-color="#6D5DA4"/>
</linearGradient>
<linearGradient id="paint1_linear_26_706" x1="269.639" y1="473.866" x2="207.364" y2="106.741" gradientUnits="userSpaceOnUse">
<stop stop-color="#3D276B"/>
<stop offset="0.7" stop-color="#6D5DA4"/>
</linearGradient>
<linearGradient id="paint2_linear_26_706" x1="222.064" y1="134.978" x2="253.893" y2="-27.1235" gradientUnits="userSpaceOnUse">
<stop stop-color="#3D276B"/>
<stop offset="0.05" stop-color="#483378"/>
<stop offset="0.16" stop-color="#58468B"/>
<stop offset="0.28" stop-color="#645399"/>
<stop offset="0.44" stop-color="#6B5BA2"/>
<stop offset="0.7" stop-color="#6D5DA4"/>
</linearGradient>
<clipPath id="clip0_26_706">
<rect width="595" height="681" fill="white"/>
</clipPath>
</defs>
</svg>
