<svg width="35" height="40" viewBox="0 0 35 40" fill="none" xmlns="http://www.w3.org/2000/svg">
<g clip-path="url(#clip0_1_2149)">
<path d="M19 4.49V3.1H20.12C20.5311 3.1 20.9253 2.9367 21.216 2.64602C21.5067 2.35533 21.67 1.96109 21.67 1.55C21.67 1.13891 21.5067 0.744666 21.216 0.453984C20.9253 0.163303 20.5311 0 20.12 0L14.76 0C14.3489 0 13.9547 0.163303 13.664 0.453984C13.3733 0.744666 13.21 1.13891 13.21 1.55C13.21 1.96109 13.3733 2.35533 13.664 2.64602C13.9547 2.9367 14.3489 3.1 14.76 3.1H15.87V4.49C11.3994 4.88914 7.25503 6.99752 4.30011 10.376C1.3452 13.7545 -0.192498 18.1427 0.00727059 22.6267C0.20704 27.1107 2.12887 31.3447 5.37252 34.4471C8.61617 37.5495 12.9316 39.2809 17.42 39.2809C21.9084 39.2809 26.2238 37.5495 29.4675 34.4471C32.7111 31.3447 34.633 27.1107 34.8327 22.6267C35.0325 18.1427 33.4948 13.7545 30.5399 10.376C27.585 6.99752 23.4406 4.88914 18.97 4.49H19ZM19 36.08V34.54C19 34.1289 18.8367 33.7347 18.546 33.444C18.2553 33.1533 17.8611 32.99 17.45 32.99C17.0389 32.99 16.6447 33.1533 16.354 33.444C16.0633 33.7347 15.9 34.1289 15.9 34.54V36.08C12.6526 35.7269 9.62262 34.2772 7.3101 31.9702C4.99759 29.6631 3.54074 26.6366 3.18 23.39H4.72C5.13108 23.39 5.52533 23.2267 5.81601 22.936C6.1067 22.6453 6.27 22.2511 6.27 21.84C6.27 21.4289 6.1067 21.0347 5.81601 20.744C5.52533 20.4533 5.13108 20.29 4.72 20.29H3.18C3.53947 17.048 4.99199 14.025 7.29848 11.7185C9.60497 9.41199 12.628 7.95947 15.87 7.6V9.14C15.87 9.55109 16.0333 9.94533 16.324 10.236C16.6147 10.5267 17.0089 10.69 17.42 10.69C17.8311 10.69 18.2253 10.5267 18.516 10.236C18.8067 9.94533 18.97 9.55109 18.97 9.14V7.6C22.2138 7.95734 25.2391 9.40892 27.5476 11.7156C29.8561 14.0223 31.3101 17.0465 31.67 20.29H30.12C29.7089 20.29 29.3147 20.4533 29.024 20.744C28.7333 21.0347 28.57 21.4289 28.57 21.84C28.57 22.2511 28.7333 22.6453 29.024 22.936C29.3147 23.2267 29.7089 23.39 30.12 23.39H31.67C31.3114 26.629 29.8618 29.6497 27.5593 31.9558C25.2568 34.2619 22.2384 35.7163 19 36.08Z" fill="#9654FF"/>
<path d="M22.12 15L17.66 19.46H17.42C16.9374 19.46 16.4657 19.6031 16.0644 19.8712C15.6631 20.1393 15.3504 20.5204 15.1657 20.9663C14.9811 21.4121 14.9327 21.9027 15.0269 22.376C15.121 22.8493 15.3534 23.2841 15.6947 23.6253C16.0359 23.9666 16.4707 24.199 16.944 24.2931C17.4173 24.3873 17.9079 24.339 18.3537 24.1543C18.7996 23.9696 19.1807 23.6569 19.4488 23.2556C19.7169 22.8543 19.86 22.3826 19.86 21.9C19.865 21.8201 19.865 21.7399 19.86 21.66L24.32 17.2C24.4648 17.0568 24.5798 16.8863 24.6583 16.6983C24.7367 16.5103 24.7771 16.3087 24.7771 16.105C24.7771 15.9013 24.7367 15.6997 24.6583 15.5117C24.5798 15.3237 24.4648 15.1532 24.32 15.01C24.029 14.718 23.6343 14.553 23.2221 14.5512C22.8098 14.5493 22.4136 14.7107 22.12 15Z" fill="#9654FF"/>
</g>
<defs>
<clipPath id="clip0_1_2149">
<rect width="34.85" height="39.26" fill="white"/>
</clipPath>
</defs>
</svg>
